<svg width="28" height="28" viewBox="0 0 28 28" fill="none" xmlns="http://www.w3.org/2000/svg">
<path opacity="0.4" d="M10.4987 2.33333C7.44203 2.33333 4.95703 4.81833 4.95703 7.875C4.95703 10.8733 7.30203 13.3 10.3587 13.405C10.452 13.3933 10.5454 13.3933 10.6154 13.405C10.6387 13.405 10.6504 13.405 10.6737 13.405C10.6854 13.405 10.6854 13.405 10.697 13.405C13.6837 13.3 16.0287 10.8733 16.0404 7.875C16.0404 4.81833 13.5554 2.33333 10.4987 2.33333Z" fill="#0097B2"/>
<path d="M16.4252 16.5083C13.1702 14.3383 7.86182 14.3383 4.58349 16.5083C3.10182 17.5 2.28516 18.8417 2.28516 20.2767C2.28516 21.7117 3.10182 23.0417 4.57182 24.0217C6.20516 25.1183 8.35182 25.6667 10.4985 25.6667C12.6452 25.6667 14.7918 25.1183 16.4252 24.0217C17.8952 23.03 18.7118 21.7 18.7118 20.2533C18.7002 18.8183 17.8952 17.4883 16.4252 16.5083Z" fill="#0097B2"/>
<path opacity="0.4" d="M23.3209 8.56334C23.5076 10.8267 21.8976 12.81 19.6693 13.0783C19.6576 13.0783 19.6576 13.0783 19.6459 13.0783H19.6109C19.5409 13.0783 19.4709 13.0783 19.4126 13.1017C18.2809 13.16 17.2426 12.7983 16.4609 12.1333C17.6626 11.06 18.3509 9.45 18.2109 7.7C18.1293 6.755 17.8026 5.89167 17.3126 5.15667C17.7559 4.935 18.2693 4.795 18.7943 4.74834C21.0809 4.55 23.1226 6.25334 23.3209 8.56334Z" fill="#0097B2"/>
<path d="M25.6536 19.355C25.5603 20.4867 24.837 21.4667 23.6236 22.1317C22.457 22.7733 20.987 23.0767 19.5286 23.0417C20.3686 22.2833 20.8586 21.3383 20.952 20.335C21.0686 18.8883 20.3803 17.5 19.0036 16.3917C18.222 15.7733 17.312 15.2833 16.3203 14.9217C18.8986 14.175 22.142 14.6767 24.137 16.2867C25.2103 17.15 25.7586 18.235 25.6536 19.355Z" fill="#0097B2"/>
</svg>
