<svg width="40" height="52" viewBox="0 0 40 52" fill="none" xmlns="http://www.w3.org/2000/svg">
<path opacity="0.4" d="M35.0756 15.1664L34.722 14.9644L31.2118 12.9441L23.9641 8.75208C21.7418 7.46415 18.3578 7.46415 16.1355 8.75208L8.8878 12.9441L5.37757 14.9897L4.92301 15.2422C0.402651 18.2726 0.0996094 18.8282 0.0996094 23.7021V35.3439C0.0996094 40.2178 0.402651 40.7734 5.02403 43.8796L16.1355 50.2939C17.2467 50.9505 18.6356 51.2536 20.0498 51.2536C21.4387 51.2536 22.8529 50.9505 23.9641 50.2939L35.1766 43.8038C39.697 40.7734 40 40.2178 40 35.3439V23.7021C40 18.8282 39.697 18.2726 35.0756 15.1664Z" fill="#0097B2"/>
<path d="M5.37695 14.9895L8.88718 12.944L15.8066 8.95394L16.1349 8.75191C18.3572 7.46399 21.7412 7.46399 23.9635 8.75191L24.2918 8.95394L31.2112 12.944L34.7214 14.9643V9.56002C34.7214 3.878 31.59 0.746582 25.908 0.746582H14.1651C8.48312 0.746582 5.37695 3.878 5.37695 9.56002V14.9895Z" fill="#0097B2"/>
<path d="M27.2213 29.3842L25.6556 31.3034C25.4031 31.5812 25.2263 32.1368 25.2515 32.5156L25.4031 34.9904C25.5041 36.5056 24.4182 37.2885 23.004 36.7329L20.7059 35.8238C20.3524 35.6975 19.7463 35.6975 19.3927 35.8238L17.0947 36.7329C15.6805 37.2885 14.5946 36.5056 14.6956 34.9904L14.8471 32.5156C14.8724 32.1368 14.6956 31.5812 14.4431 31.3034L12.8774 29.3842C11.8925 28.2225 12.3218 26.9346 13.7865 26.5558L16.1856 25.9497C16.5644 25.8487 17.0189 25.4951 17.2209 25.1668L18.5594 23.0961C19.3927 21.8081 20.7059 21.8081 21.5393 23.0961L22.8777 25.1668C23.0797 25.4951 23.5343 25.8487 23.9131 25.9497L26.3122 26.5558C27.7769 26.9346 28.2062 28.2225 27.2213 29.3842Z" fill="#0097B2"/>
</svg>
