<svg width="32" height="32" viewBox="0 0 32 32" fill="none" xmlns="http://www.w3.org/2000/svg">
<path opacity="0.4" d="M21.5871 11.8107C21.0671 11.8107 20.6538 11.3973 20.6538 10.8773V9.17068C20.6538 7.86401 20.0938 6.61068 19.1338 5.73068C18.1471 4.83734 16.8805 4.42401 15.5471 4.54401C13.3071 4.75734 11.3471 7.03734 11.3471 9.41068V10.6107C11.3471 11.1307 10.9338 11.544 10.4138 11.544C9.8938 11.544 9.48047 11.1307 9.48047 10.6107V9.41068C9.48047 6.07734 12.1738 2.99734 15.3605 2.69068C17.2138 2.51734 19.0005 3.10401 20.3738 4.35734C21.7338 5.58401 22.5071 7.34401 22.5071 9.17068V10.8773C22.5071 11.3973 22.0938 11.8107 21.5871 11.8107Z" fill="#CCFF02"/>
<path d="M26.6117 11.944C25.4917 10.704 23.6517 10.104 20.9584 10.104H11.0384C8.34503 10.104 6.50503 10.704 5.38503 11.944C4.09169 13.384 4.13169 15.304 4.27836 16.6373L5.21169 24.064C5.49169 26.664 6.54503 29.3307 12.2784 29.3307H19.7184C25.4517 29.3307 26.505 26.664 26.785 24.0773L27.7184 16.624C27.865 15.304 27.905 13.384 26.6117 11.944ZM15.9984 24.7707C13.2117 24.7707 10.945 22.504 10.945 19.7173C10.945 16.9307 13.2117 14.664 15.9984 14.664C18.785 14.664 21.0517 16.9307 21.0517 19.7173C21.0517 22.504 18.785 24.7707 15.9984 24.7707Z" fill="#CCFF02"/>
<path opacity="0.4" d="M15.9986 24.7707C18.7895 24.7707 21.052 22.5083 21.052 19.7174C21.052 16.9265 18.7895 14.6641 15.9986 14.6641C13.2078 14.6641 10.9453 16.9265 10.9453 19.7174C10.9453 22.5083 13.2078 24.7707 15.9986 24.7707Z" fill="#CCFF02"/>
<path d="M15.2385 22.1839C14.9852 22.1839 14.7319 22.0906 14.5319 21.8906L13.2119 20.5706C12.8252 20.1839 12.8252 19.5439 13.2119 19.1573C13.5985 18.7706 14.2385 18.7706 14.6252 19.1573L15.2652 19.7973L17.3985 17.8239C17.7985 17.4506 18.4385 17.4773 18.8119 17.8773C19.1852 18.2773 19.1585 18.9173 18.7585 19.2906L15.9185 21.9173C15.7185 22.0906 15.4785 22.1839 15.2385 22.1839Z" fill="#CCFF02"/>
</svg>
