<svg width="110" height="111" viewBox="0 0 110 111" fill="none" xmlns="http://www.w3.org/2000/svg">
<path opacity="0.4" d="M74.4323 17.2291H35.5656C24.2448 17.2291 15.0781 26.4416 15.0781 37.7166V80.8458C15.0781 92.1208 24.2906 101.333 35.5656 101.333H74.3865C85.7073 101.333 94.874 92.1208 94.874 80.8458V37.7166C94.9198 26.3958 85.7073 17.2291 74.4323 17.2291Z" fill="#0097B2"/>
<path d="M65.7706 9.66663H44.2289C39.4622 9.66663 35.5664 13.5166 35.5664 18.2833V22.5916C35.5664 27.3583 39.4164 31.2083 44.1831 31.2083H65.7706C70.5372 31.2083 74.3872 27.3583 74.3872 22.5916V18.2833C74.4331 13.5166 70.5372 9.66663 65.7706 9.66663Z" fill="#0097B2"/>
<path d="M49.5471 78.1875C48.6763 78.1875 47.8055 77.8666 47.118 77.1791L40.243 70.3041C38.9138 68.975 38.9138 66.775 40.243 65.4458C41.5721 64.1166 43.7721 64.1166 45.1013 65.4458L49.5471 69.8916L65.4513 53.9875C66.7805 52.6583 68.9805 52.6583 70.3096 53.9875C71.6388 55.3166 71.6388 57.5166 70.3096 58.8458L51.9763 77.1791C51.3346 77.8666 50.418 78.1875 49.5471 78.1875Z" fill="#CCFF02"/>
</svg>
