<svg width="18" height="18" viewBox="0 0 18 18" fill="none" xmlns="http://www.w3.org/2000/svg">
<path opacity="0.4" d="M11.61 2.25H5.64C3.0525 2.25 1.5 3.795 1.5 6.39V12.3525C1.5 14.955 3.0525 16.5 5.64 16.5H11.6025C14.1975 16.5 15.7425 14.955 15.7425 12.36V6.39C15.75 3.795 14.1975 2.25 11.61 2.25Z" fill="#0097B2"/>
<path d="M15.7636 2.23496C14.4211 0.884963 13.1086 0.854963 11.7286 2.23496L10.8811 3.07496C10.8061 3.14996 10.7836 3.25496 10.8136 3.35246C11.3386 5.18996 12.8086 6.65996 14.6461 7.18496C14.6686 7.19246 14.7061 7.19246 14.7286 7.19246C14.8036 7.19246 14.8786 7.16246 14.9311 7.10996L15.7636 6.26996C16.4461 5.58746 16.7836 4.93496 16.7836 4.26746C16.7836 3.59246 16.4461 2.92496 15.7636 2.23496Z" fill="#0097B2"/>
<path d="M13.3958 7.81501C13.1933 7.71751 12.9983 7.62001 12.8183 7.50751C12.6683 7.41751 12.5183 7.32 12.3758 7.215C12.2558 7.14 12.1208 7.02751 11.9858 6.91501C11.9708 6.90751 11.9258 6.87 11.8658 6.81C11.6333 6.6225 11.3858 6.3675 11.1533 6.09C11.1383 6.075 11.0933 6.03 11.0558 5.9625C10.9808 5.88 10.8683 5.7375 10.7708 5.58C10.6883 5.475 10.5908 5.325 10.5008 5.1675C10.3883 4.98 10.2908 4.7925 10.2008 4.5975C10.1033 4.3875 10.0283 4.1925 9.96081 4.005L5.92581 8.04001C5.66331 8.30251 5.40831 8.79751 5.35581 9.16501L5.03331 11.4C4.96581 11.8725 5.09331 12.315 5.38581 12.6075C5.63331 12.855 5.97081 12.9825 6.34581 12.9825C6.42831 12.9825 6.51081 12.975 6.59331 12.9675L8.82081 12.6525C9.18831 12.6 9.68331 12.3525 9.94581 12.0825L13.9808 8.0475C13.7933 7.9875 13.6058 7.90501 13.3958 7.81501Z" fill="#0097B2"/>
</svg>
