<svg width="28" height="28" viewBox="0 0 28 28" fill="none" xmlns="http://www.w3.org/2000/svg">
<path opacity="0.4" d="M11.668 4.375H13.1263V9.91667C13.1263 10.395 13.523 10.7917 14.0013 10.7917C14.4796 10.7917 14.8763 10.395 14.8763 9.91667V4.375H16.3346C16.813 4.375 17.2096 3.97833 17.2096 3.5C17.2096 3.02167 16.813 2.625 16.3346 2.625H11.668C11.1896 2.625 10.793 3.02167 10.793 3.5C10.793 3.97833 11.1896 4.375 11.668 4.375Z" fill="#0097B2"/>
<path opacity="0.4" d="M16.3346 23.6249H14.8763V18.0833C14.8763 17.6049 14.4796 17.2083 14.0013 17.2083C13.523 17.2083 13.1263 17.6049 13.1263 18.0833V23.6249H11.668C11.1896 23.6249 10.793 24.0216 10.793 24.4999C10.793 24.9783 11.1896 25.3749 11.668 25.3749H16.3346C16.813 25.3749 17.2096 24.9783 17.2096 24.4999C17.2096 24.0216 16.813 23.6249 16.3346 23.6249Z" fill="#0097B2"/>
<path opacity="0.4" d="M3.30325 11.5267C3.44325 11.6083 3.59492 11.6433 3.73492 11.6433C4.03825 11.6433 4.32992 11.4917 4.49325 11.2L5.22825 9.94001L10.0349 12.7167C10.1632 12.7983 10.3149 12.8333 10.4666 12.8333C10.7699 12.8333 11.0616 12.6817 11.2249 12.39C11.4699 11.97 11.3182 11.4333 10.9099 11.2L6.11492 8.42334L6.83825 7.16334C7.08325 6.74334 6.93158 6.20667 6.52325 5.97334C6.10325 5.72834 5.56658 5.86834 5.33325 6.28834L2.99992 10.325C2.74325 10.7567 2.88325 11.2817 3.30325 11.5267Z" fill="#0097B2"/>
<path opacity="0.4" d="M24.6998 16.4733C24.2798 16.2283 23.7432 16.3683 23.5098 16.7883L22.7748 18.0483L17.9682 15.2833C17.5482 15.0383 17.0115 15.1899 16.7782 15.5983C16.5332 16.0183 16.6848 16.5549 17.0932 16.7883L21.8882 19.5649L21.1648 20.8249C20.9198 21.2449 21.0715 21.7816 21.4798 22.0149C21.6198 22.0966 21.7715 22.1316 21.9115 22.1316C22.2148 22.1316 22.5065 21.9799 22.6698 21.6883L25.0032 17.6516C25.2598 17.2433 25.1198 16.7183 24.6998 16.4733Z" fill="#0097B2"/>
<path opacity="0.4" d="M21.8985 8.42339L17.1035 11.2001C16.6835 11.4451 16.5435 11.9817 16.7885 12.3901C16.9519 12.6701 17.2435 12.8334 17.5469 12.8334C17.6985 12.8334 17.8502 12.7984 17.9785 12.7167L22.7735 9.94006L23.5085 11.2001C23.6719 11.4801 23.9635 11.6434 24.2669 11.6434C24.4185 11.6434 24.5702 11.6084 24.6985 11.5267C25.1185 11.2817 25.2585 10.7451 25.0135 10.3367L22.6802 6.30006C22.4352 5.88006 21.8985 5.74006 21.4902 5.98506C21.0702 6.23006 20.9302 6.76672 21.1752 7.17506L21.8985 8.42339Z" fill="#0097B2"/>
<path opacity="0.4" d="M6.10274 19.5768L10.8977 16.8001C11.3177 16.5551 11.4577 16.0184 11.2127 15.6101C10.9677 15.1901 10.4311 15.0501 10.0227 15.2951L5.22774 18.0718L4.49274 16.8118C4.24774 16.3918 3.71108 16.2518 3.30274 16.4968C2.88274 16.7418 2.74274 17.2784 2.98774 17.6868L5.32108 21.7234C5.48441 22.0034 5.77608 22.1668 6.07941 22.1668C6.23108 22.1668 6.38274 22.1318 6.51108 22.0501C6.93108 21.8051 7.07108 21.2684 6.82608 20.8601L6.10274 19.5768Z" fill="#0097B2"/>
<path d="M18.0846 14.0001C18.0846 14.7467 17.8863 15.4351 17.5363 16.0417C16.8246 17.2667 15.5063 18.0834 14.0013 18.0834C12.4963 18.0834 11.178 17.2667 10.4663 16.0417C10.1163 15.4351 9.91797 14.7467 9.91797 14.0001C9.91797 13.2534 10.1163 12.5651 10.4663 11.9584C11.178 10.7334 12.4963 9.91675 14.0013 9.91675C15.5063 9.91675 16.8246 10.7334 17.5363 11.9584C17.8863 12.5651 18.0846 13.2534 18.0846 14.0001Z" fill="#0097B2"/>
</svg>
