<svg width="35" height="35" viewBox="0 0 35 35" fill="none" xmlns="http://www.w3.org/2000/svg">
<rect width="35" height="35" rx="8" fill="#CCFF02"/>
<path fill-rule="evenodd" clip-rule="evenodd" d="M9 17.75C9 14.2547 9 12.5071 9.83289 11.2483C10.2048 10.6862 10.6862 10.2048 11.2483 9.83289C12.5071 9 14.2547 9 17.75 9C21.2453 9 22.9929 9 24.2517 9.83289C24.8138 10.2048 25.2952 10.6862 25.6671 11.2483C26.5 12.5071 26.5 14.2547 26.5 17.75C26.5 21.2453 26.5 22.9929 25.6671 24.2517C25.2952 24.8138 24.8138 25.2952 24.2517 25.6671C22.9929 26.5 21.2453 26.5 17.75 26.5C14.2547 26.5 12.5071 26.5 11.2483 25.6671C10.6862 25.2952 10.2048 24.8138 9.83289 24.2517C9 22.9929 9 21.2453 9 17.75ZM22.2799 17.7504C22.2799 20.2522 20.2518 22.2803 17.7499 22.2803C15.2481 22.2803 13.22 20.2522 13.22 17.7504C13.22 15.2485 15.2481 13.2204 17.7499 13.2204C20.2518 13.2204 22.2799 15.2485 22.2799 17.7504ZM17.7499 20.7477C19.4053 20.7477 20.7473 19.4058 20.7473 17.7504C20.7473 16.095 19.4053 14.753 17.7499 14.753C16.0945 14.753 14.7526 16.095 14.7526 17.7504C14.7526 19.4058 16.0945 20.7477 17.7499 20.7477ZM22.4586 14.0572C23.0465 14.0572 23.523 13.5807 23.523 12.9928C23.523 12.4049 23.0465 11.9284 22.4586 11.9284C21.8708 11.9284 21.3942 12.4049 21.3942 12.9928C21.3942 13.5807 21.8708 14.0572 22.4586 14.0572Z" fill="#0097B2"/>
</svg>
