<svg width="28" height="28" viewBox="0 0 28 28" fill="none" xmlns="http://www.w3.org/2000/svg">
<path opacity="0.4" d="M15.3399 17.9317C15.0832 17.5583 14.6282 17.3483 14.1032 17.3483H11.3849C11.2099 17.3483 11.0349 17.2783 10.9299 17.1383C10.8132 16.9983 10.7666 16.8233 10.7899 16.625L11.1282 14.455C11.2682 13.8133 10.8366 13.0784 10.1949 12.8567C9.58822 12.635 8.88823 12.9384 8.59656 13.37L5.80823 17.5117L5.72656 17.6517V23.5084L5.83156 23.6133L7.93156 25.235C8.21156 25.515 8.84156 25.6667 9.28489 25.6667H11.8632C12.7499 25.6667 13.6366 25.0016 13.8466 24.185L15.4799 19.2266C15.6432 18.7483 15.5966 18.2933 15.3399 17.9317Z" fill="#0097B2"/>
<path d="M4.45536 15.5166H3.7787C2.75203 15.5166 2.33203 15.9133 2.33203 16.8933V23.555C2.33203 24.535 2.75203 24.9316 3.7787 24.9316H4.45536C5.48203 24.9316 5.90203 24.535 5.90203 23.555V16.8933C5.90203 15.9133 5.48203 15.5166 4.45536 15.5166Z" fill="#0097B2"/>
<path opacity="0.4" d="M13.0673 10.0333C13.324 10.4067 13.779 10.6167 14.304 10.6167H17.0223C17.1973 10.6167 17.3723 10.6867 17.4773 10.8267C17.594 10.9667 17.6406 11.1417 17.6173 11.34L17.279 13.5101C17.139 14.1517 17.5706 14.8867 18.2123 15.1084C18.819 15.3301 19.519 15.0267 19.8106 14.5951L22.599 10.4534L22.6806 10.3134V4.45672L22.5756 4.35168L20.4756 2.73007C20.1956 2.45007 19.5656 2.29834 19.1223 2.29834H16.544C15.6573 2.29834 14.7706 2.96336 14.5606 3.78003L12.9273 8.73836C12.764 9.20503 12.8106 9.67168 13.0673 10.0333Z" fill="#0097B2"/>
<path d="M23.9506 12.4485H24.6272C25.6539 12.4485 26.0739 12.0518 26.0739 11.0718V4.41018C26.0739 3.43018 25.6539 3.03345 24.6272 3.03345H23.9506C22.9239 3.03345 22.5039 3.43018 22.5039 4.41018V11.0718C22.5039 12.0518 22.9239 12.4485 23.9506 12.4485Z" fill="#0097B2"/>
</svg>
