<svg width="35" height="35" viewBox="0 0 35 35" fill="none" xmlns="http://www.w3.org/2000/svg">
<rect width="35" height="35" rx="8" fill="#CCFF02"/>
<path d="M8.75 11.1029C8.75 10.5417 8.94708 10.0788 9.34122 9.71401C9.73535 9.34924 10.2478 9.16687 10.8784 9.16687C11.4978 9.16687 11.9989 9.34643 12.3818 9.70559C12.7759 10.076 12.973 10.5586 12.973 11.1534C12.973 11.6921 12.7815 12.141 12.3986 12.5002C12.0045 12.8706 11.4865 13.0558 10.8446 13.0558H10.8277C10.2083 13.0558 9.70721 12.8706 9.32432 12.5002C8.94144 12.1298 8.75 11.6641 8.75 11.1029ZM8.96959 25.8335V14.5877H12.7196V25.8335H8.96959ZM14.7973 25.8335H18.5473V19.5541C18.5473 19.1612 18.5923 18.8582 18.6824 18.645C18.8401 18.2634 19.0794 17.9407 19.4003 17.677C19.7213 17.4132 20.1239 17.2813 20.6081 17.2813C21.8694 17.2813 22.5 18.1287 22.5 19.8234V25.8335H26.25V19.3857C26.25 17.7247 25.8559 16.4648 25.0676 15.6063C24.2793 14.7477 23.2376 14.3184 21.9426 14.3184C20.4899 14.3184 19.3581 14.9413 18.5473 16.1871V16.2207H18.5304L18.5473 16.1871V14.5877H14.7973C14.8198 14.9469 14.8311 16.0636 14.8311 17.9379C14.8311 19.8122 14.8198 22.4441 14.7973 25.8335Z" fill="#0097B2"/>
</svg>
