<svg width="35" height="35" viewBox="0 0 35 35" fill="none" xmlns="http://www.w3.org/2000/svg">
<rect width="35" height="35" rx="8" fill="#0077B5"/>
<path d="M8.08203 11.936C8.08203 11.3748 8.27911 10.9119 8.67325 10.5471C9.06739 10.1824 9.57978 10 10.2104 10C10.8298 10 11.3309 10.1796 11.7138 10.5387C12.1079 10.9091 12.305 11.3917 12.305 11.9865C12.305 12.5253 12.1136 12.9742 11.7307 13.3333C11.3365 13.7037 10.8185 13.8889 10.1766 13.8889H10.1597C9.54036 13.8889 9.03924 13.7037 8.65636 13.3333C8.27347 12.963 8.08203 12.4972 8.08203 11.936ZM8.30163 26.6667V15.4209H12.0516V26.6667H8.30163ZM14.1293 26.6667H17.8793V20.3872C17.8793 19.9944 17.9244 19.6913 18.0145 19.4781C18.1721 19.0965 18.4114 18.7738 18.7324 18.5101C19.0533 18.2463 19.4559 18.1145 19.9401 18.1145C21.2014 18.1145 21.832 18.9618 21.832 20.6566V26.6667H25.582V20.2189C25.582 18.5578 25.1879 17.298 24.3996 16.4394C23.6113 15.5808 22.5696 15.1515 21.2746 15.1515C19.8219 15.1515 18.6901 15.7744 17.8793 17.0202V17.0539H17.8624L17.8793 17.0202V15.4209H14.1293C14.1518 15.78 14.1631 16.8967 14.1631 18.771C14.1631 20.6453 14.1518 23.2772 14.1293 26.6667Z" fill="white"/>
</svg>
