<svg width="28" height="28" viewBox="0 0 28 28" fill="none" xmlns="http://www.w3.org/2000/svg">
<path d="M21.875 9.33333V11.7833C21.3617 11.7133 20.7783 11.6783 20.125 11.6667V9.33333C20.125 5.65833 19.0867 3.20833 14 3.20833C8.91333 3.20833 7.875 5.65833 7.875 9.33333V11.6667C7.22167 11.6783 6.63833 11.7133 6.125 11.7833V9.33333C6.125 5.95 6.94167 1.45833 14 1.45833C21.0583 1.45833 21.875 5.95 21.875 9.33333Z" fill="#0097B2"/>
<path opacity="0.4" d="M25.6654 17.5V19.8333C25.6654 24.5 24.4987 25.6667 19.832 25.6667H8.16536C3.4987 25.6667 2.33203 24.5 2.33203 19.8333V17.5C2.33203 13.6033 3.1487 12.145 6.1237 11.7833C6.63703 11.7133 7.22036 11.6783 7.8737 11.6667H20.1237C20.777 11.6783 21.3604 11.7133 21.8737 11.7833C24.8487 12.145 25.6654 13.6033 25.6654 17.5Z" fill="#0097B2"/>
<path d="M9.33464 19.8333C9.18297 19.8333 9.0313 19.7983 8.8913 19.74C8.73963 19.6817 8.62298 19.6 8.50631 19.495C8.29631 19.2733 8.16797 18.97 8.16797 18.6667C8.16797 18.515 8.20295 18.3633 8.26129 18.2233C8.31962 18.0833 8.40131 17.955 8.50631 17.8383C8.62298 17.7333 8.73963 17.6517 8.8913 17.5933C9.32296 17.4067 9.83629 17.5117 10.163 17.8383C10.268 17.955 10.3497 18.0833 10.408 18.2233C10.4663 18.3633 10.5013 18.515 10.5013 18.6667C10.5013 18.97 10.373 19.2733 10.163 19.495C9.94129 19.705 9.63797 19.8333 9.33464 19.8333Z" fill="#0097B2"/>
<path d="M13.9987 19.8333C13.6837 19.8333 13.392 19.705 13.1704 19.495C13.0654 19.3783 12.9837 19.25 12.9253 19.11C12.867 18.97 12.832 18.8183 12.832 18.6667C12.832 18.3517 12.9604 18.06 13.1704 17.8383C13.602 17.4067 14.3837 17.4067 14.827 17.8383C15.037 18.06 15.1654 18.3517 15.1654 18.6667C15.1654 18.8183 15.1304 18.97 15.072 19.11C15.0137 19.25 14.932 19.3783 14.827 19.495C14.6054 19.705 14.302 19.8333 13.9987 19.8333Z" fill="#0097B2"/>
<path d="M18.6667 19.8333C18.3633 19.8333 18.06 19.705 17.8383 19.495C17.6283 19.2733 17.5 18.9817 17.5 18.6667C17.5 18.3517 17.6283 18.06 17.8383 17.8383C18.2817 17.4067 19.0633 17.4067 19.495 17.8383C19.5417 17.8967 19.5883 17.955 19.635 18.025C19.6817 18.0833 19.7167 18.1533 19.74 18.2233C19.775 18.2933 19.7983 18.3633 19.81 18.4333C19.8217 18.515 19.8333 18.5967 19.8333 18.6667C19.8333 18.97 19.705 19.2733 19.495 19.495C19.2733 19.705 18.97 19.8333 18.6667 19.8333Z" fill="#0097B2"/>
</svg>
