<svg width="36" height="35" viewBox="0 0 36 35" fill="none" xmlns="http://www.w3.org/2000/svg">
<path opacity="0.4" d="M28.703 21.1312L27.2447 18.7104C26.9384 18.1708 26.6614 17.15 26.6614 16.552V12.8625C26.6614 8.10829 22.7968 4.22913 18.028 4.22913C13.2593 4.22913 9.39469 8.10829 9.39469 12.8625V16.552C9.39469 17.15 9.11761 18.1708 8.81136 18.6958L7.33844 21.1312C6.75511 22.1083 6.62386 23.1875 6.98844 24.1791C7.33844 25.1562 8.16969 25.9145 9.24886 26.2791C12.078 27.2416 15.053 27.7083 18.028 27.7083C21.003 27.7083 23.978 27.2416 26.8072 26.2937C27.828 25.9583 28.6155 25.1854 28.9947 24.1791C29.3739 23.1729 29.2718 22.0645 28.703 21.1312Z" fill="#0097B2"/>
<path d="M21.2826 4.84163C20.2763 4.44788 19.1826 4.22913 18.0305 4.22913C16.893 4.22913 15.7992 4.43329 14.793 4.84163C15.4201 3.66038 16.6596 2.91663 18.0305 2.91663C19.4159 2.91663 20.6409 3.66038 21.2826 4.84163Z" fill="#0097B2"/>
<path d="M22.1263 29.1812C21.5138 30.8729 19.8951 32.0833 17.9992 32.0833C16.8471 32.0833 15.7096 31.6166 14.9076 30.7854C14.4409 30.3479 14.0909 29.7645 13.8867 29.1666C14.0763 29.1958 14.2659 29.2104 14.4701 29.2395C14.8055 29.2833 15.1555 29.327 15.5055 29.3562C16.3367 29.4291 17.1826 29.4729 18.0284 29.4729C18.8596 29.4729 19.6909 29.4291 20.5076 29.3562C20.8138 29.327 21.1201 29.3125 21.4117 29.2687C21.6451 29.2395 21.8784 29.2104 22.1263 29.1812Z" fill="#0097B2"/>
</svg>
