<svg width="61" height="60" viewBox="0 0 61 60" fill="none" xmlns="http://www.w3.org/2000/svg">
<path opacity="0.4" d="M53.1641 5.00049V35.2505C53.1641 40.0005 50.6641 42.5005 45.9141 42.5005H15.414C10.664 42.5005 8.16406 40.0005 8.16406 35.2505V5.00049H53.1641Z" fill="#0097B2"/>
<path d="M55.7344 6.89258H5.73438C4.70938 6.89258 3.85938 6.04258 3.85938 5.01758C3.85938 3.99258 4.70938 3.14258 5.73438 3.14258H55.7344C56.7594 3.14258 57.6094 3.99258 57.6094 5.01758C57.6094 6.04258 56.7594 6.89258 55.7344 6.89258Z" fill="#0097B2"/>
<path d="M42.3427 55.85C42.0177 56.5 41.3426 56.875 40.6676 56.875C40.3926 56.875 40.0927 56.8 39.8427 56.675L30.6677 52.1L21.4926 56.675C21.2426 56.8 20.9427 56.875 20.6677 56.875C19.9927 56.875 19.3176 56.5 18.9926 55.85C18.5176 54.9 18.8927 53.775 19.8427 53.325L28.7927 48.85V42.5H32.5427V48.85L41.4926 53.325C42.4426 53.775 42.8177 54.9 42.3427 55.85Z" fill="#0097B2"/>
<path d="M19.4241 29.3748C18.8991 29.3748 18.3492 29.1498 17.9742 28.6998C17.2992 27.8998 17.4241 26.7248 18.2241 26.0498L26.0992 19.4748C26.8242 18.8748 27.7491 18.6248 28.6241 18.7748C29.5241 18.9248 30.2992 19.4748 30.7742 20.2748L33.3991 24.6498L40.7241 18.5498C41.5241 17.8748 42.6991 17.9998 43.3741 18.7998C44.0491 19.5998 43.9242 20.7748 43.1242 21.4498L35.2491 28.0248C34.5241 28.6248 33.5991 28.8748 32.7241 28.7248C31.8241 28.5748 31.0491 28.0249 30.5741 27.2249L27.9491 22.8499L20.6242 28.9498C20.2742 29.2248 19.8491 29.3748 19.4241 29.3748Z" fill="#0097B2"/>
</svg>
