<svg width="50" height="50" viewBox="0 0 50 50" fill="none" xmlns="http://www.w3.org/2000/svg">
<path d="M33.1453 25.7708H42.9161C42.7495 35.5 40.8328 37.1042 34.8536 40.6458C34.1661 41.0625 33.937 41.9374 34.3536 42.6457C34.7703 43.3332 35.6453 43.5625 36.3536 43.1459C43.3953 38.9792 45.8536 36.4374 45.8536 24.3124V13.0834C45.8536 9.52087 42.9578 6.64581 39.4161 6.64581H33.1661C29.4995 6.64581 26.7286 9.4167 26.7286 13.0834V19.3334C26.7078 23 29.4786 25.7708 33.1453 25.7708Z" fill="#0097B2"/>
<path opacity="0.4" d="M10.6043 25.7708H20.3751C20.2085 35.5 18.2918 37.1042 12.3126 40.6458C11.6251 41.0625 11.396 41.9374 11.8126 42.6457C12.2293 43.3332 13.1043 43.5625 13.8126 43.1459C20.8543 38.9792 23.3126 36.4374 23.3126 24.3124V13.0834C23.3126 9.52087 20.4168 6.64581 16.8751 6.64581H10.6251C6.95845 6.64581 4.18762 9.4167 4.18762 13.0834V19.3334C4.16678 23 6.93762 25.7708 10.6043 25.7708Z" fill="#0097B2"/>
</svg>
