<svg width="1440" height="1024" viewBox="0 0 1440 1024" fill="none" xmlns="http://www.w3.org/2000/svg">
<g clip-path="url(#clip0_3593_7093)">
<rect width="1440" height="789" fill="#E9F9FC"/>
<path d="M1651 588C1678.61 588 1701 610.386 1701 638V931H-262V638C-262 610.386 -239.613 588 -212 588C-200.793 588 -190.445 591.688 -182.107 597.916C-176.115 602.392 -166.885 602.392 -160.893 597.916C-152.555 591.688 -142.207 588 -131 588C-119.793 588 -109.445 591.688 -101.107 597.916C-95.1152 602.392 -85.8848 602.392 -79.8926 597.916C-71.5547 591.688 -61.207 588 -50 588C-38.793 588 -28.4453 591.688 -20.1074 597.916C-14.1152 602.392 -4.88477 602.392 1.10742 597.916C9.44531 591.688 19.793 588 31 588C42.207 588 52.5547 591.688 60.8926 597.916C66.8848 602.392 76.1152 602.392 82.1074 597.916C90.4453 591.688 100.793 588 112 588C123.207 588 133.555 591.688 141.893 597.916C147.885 602.392 157.115 602.392 163.107 597.916C171.445 591.688 181.793 588 193 588C204.207 588 214.555 591.688 222.893 597.916C228.885 602.392 238.115 602.392 244.107 597.916C252.445 591.688 262.793 588 274 588C285.207 588 295.555 591.688 303.893 597.916C309.885 602.392 319.115 602.392 325.107 597.916C333.445 591.688 343.793 588 355 588C366.207 588 376.555 591.688 384.893 597.916C390.885 602.392 400.115 602.392 406.107 597.916C414.445 591.688 424.793 588 436 588C447.207 588 457.555 591.688 465.893 597.916C471.885 602.392 481.115 602.392 487.107 597.916C495.445 591.688 505.793 588 517 588C528.207 588 538.555 591.688 546.893 597.916C552.885 602.392 562.115 602.392 568.107 597.916C576.445 591.688 586.793 588 598 588C609.207 588 619.555 591.688 627.893 597.916C633.885 602.392 643.115 602.392 649.107 597.916C657.445 591.688 667.793 588 679 588C690.207 588 700.555 591.688 708.893 597.916C714.885 602.392 724.115 602.392 730.107 597.916C738.445 591.688 748.793 588 760 588C771.207 588 781.555 591.688 789.893 597.916C795.885 602.392 805.115 602.392 811.107 597.916C819.445 591.688 829.793 588 841 588C852.207 588 862.555 591.688 870.893 597.916C876.885 602.392 886.115 602.392 892.107 597.916C900.445 591.688 910.793 588 922 588C933.207 588 943.555 591.688 951.893 597.916C957.885 602.392 967.115 602.392 973.107 597.916C981.445 591.688 991.793 588 1003 588C1014.21 588 1024.55 591.688 1032.89 597.916C1038.88 602.392 1048.12 602.392 1054.11 597.916C1062.45 591.688 1072.79 588 1084 588C1095.21 588 1105.55 591.688 1113.89 597.916C1119.88 602.392 1129.12 602.392 1135.11 597.916C1143.45 591.688 1153.79 588 1165 588C1176.21 588 1186.55 591.688 1194.89 597.916C1200.88 602.392 1210.12 602.392 1216.11 597.916C1224.45 591.688 1234.79 588 1246 588C1257.21 588 1267.55 591.688 1275.89 597.916C1281.88 602.392 1291.12 602.392 1297.11 597.916C1305.45 591.688 1315.79 588 1327 588C1338.21 588 1348.55 591.688 1356.89 597.916C1362.88 602.392 1372.12 602.392 1378.11 597.916C1386.45 591.688 1396.79 588 1408 588C1419.21 588 1429.55 591.688 1437.89 597.916C1443.88 602.392 1453.12 602.392 1459.11 597.916C1467.45 591.688 1477.79 588 1489 588C1500.21 588 1510.55 591.688 1518.89 597.916C1524.88 602.392 1534.12 602.392 1540.11 597.916C1548.45 591.688 1558.79 588 1570 588C1581.21 588 1591.55 591.688 1599.89 597.916C1605.88 602.392 1615.12 602.392 1621.11 597.916C1629.45 591.688 1639.79 588 1651 588Z" fill="#DDF3F8"/>
<g clip-path="url(#clip1_3593_7093)">
<rect width="1440" height="789" fill="#E9F9FC"/>
<g clip-path="url(#clip2_3593_7093)">
<path d="M1651 52C1678.61 52 1701 74.3857 1701 102V395H-262V102C-262 74.3857 -239.613 52 -212 52C-200.793 52 -190.445 55.6875 -182.107 61.916C-176.115 66.3921 -166.885 66.3921 -160.893 61.916C-152.555 55.6875 -142.207 52 -131 52C-119.793 52 -109.445 55.6875 -101.107 61.916C-95.1152 66.3921 -85.8848 66.3921 -79.8926 61.916C-71.5547 55.6875 -61.207 52 -50 52C-38.793 52 -28.4453 55.6875 -20.1074 61.916C-14.1152 66.3921 -4.88477 66.3921 1.10742 61.916C9.44531 55.6875 19.793 52 31 52C42.207 52 52.5547 55.6875 60.8926 61.916C66.8848 66.3921 76.1152 66.3921 82.1074 61.916C90.4453 55.6875 100.793 52 112 52C123.207 52 133.555 55.6875 141.893 61.916C147.885 66.3921 157.115 66.3921 163.107 61.916C171.445 55.6875 181.793 52 193 52C204.207 52 214.555 55.6875 222.893 61.916C228.885 66.3921 238.115 66.3921 244.107 61.916C252.445 55.6875 262.793 52 274 52C285.207 52 295.555 55.6875 303.893 61.9155C309.885 66.3921 319.115 66.3921 325.107 61.9155C333.445 55.6875 343.793 52 355 52C366.207 52 376.555 55.6875 384.893 61.9155C390.885 66.3921 400.115 66.3921 406.107 61.9155C414.445 55.6875 424.793 52 436 52C447.207 52 457.555 55.6875 465.893 61.9155C471.885 66.3921 481.115 66.3921 487.107 61.9155C495.445 55.6875 505.793 52 517 52C528.207 52 538.555 55.6875 546.893 61.9155C552.885 66.3921 562.115 66.3921 568.107 61.9155C576.445 55.6875 586.793 52 598 52C609.207 52 619.555 55.6875 627.893 61.9155C633.885 66.3921 643.115 66.3921 649.107 61.9155C657.445 55.6875 667.793 52 679 52C690.207 52 700.555 55.6875 708.893 61.9155C714.885 66.3921 724.115 66.3921 730.107 61.9155C738.445 55.6875 748.793 52 760 52C771.207 52 781.555 55.6875 789.893 61.916C795.885 66.3921 805.115 66.3921 811.107 61.916C819.445 55.6875 829.793 52 841 52C852.207 52 862.555 55.6875 870.893 61.916C876.885 66.3921 886.115 66.3921 892.107 61.916C900.445 55.6875 910.793 52 922 52C933.207 52 943.555 55.6875 951.893 61.916C957.885 66.3921 967.115 66.3921 973.107 61.916C981.445 55.6875 991.793 52 1003 52C1014.21 52 1024.55 55.6875 1032.89 61.916C1038.88 66.3921 1048.12 66.3921 1054.11 61.916C1062.45 55.6875 1072.79 52 1084 52C1095.21 52 1105.55 55.6875 1113.89 61.916C1119.88 66.3921 1129.12 66.3921 1135.11 61.916C1143.45 55.6875 1153.79 52 1165 52C1176.21 52 1186.55 55.6875 1194.89 61.916C1200.88 66.3921 1210.12 66.3921 1216.11 61.916C1224.45 55.6875 1234.79 52 1246 52C1257.21 52 1267.55 55.6875 1275.89 61.916C1281.88 66.3921 1291.12 66.3921 1297.11 61.916C1305.45 55.6875 1315.79 52 1327 52C1338.21 52 1348.55 55.6875 1356.89 61.916C1362.88 66.3921 1372.12 66.3921 1378.11 61.916C1386.45 55.6875 1396.79 52 1408 52C1419.21 52 1429.55 55.6875 1437.89 61.916C1443.88 66.3921 1453.12 66.3921 1459.11 61.916C1467.45 55.6875 1477.79 52 1489 52C1500.21 52 1510.55 55.6875 1518.89 61.916C1524.88 66.3921 1534.12 66.3921 1540.11 61.916C1548.45 55.6875 1558.79 52 1570 52C1581.21 52 1591.55 55.6875 1599.89 61.916C1605.88 66.3921 1615.12 66.3921 1621.11 61.916C1629.45 55.6875 1639.79 52 1651 52Z" fill="#DDF3F8"/>
<path d="M1651 128C1678.61 128 1701 150.386 1701 178V471H-262V178C-262 150.386 -239.613 128 -212 128C-200.793 128 -190.445 131.688 -182.107 137.916C-176.115 142.392 -166.885 142.392 -160.893 137.916C-152.555 131.688 -142.207 128 -131 128C-119.793 128 -109.445 131.688 -101.107 137.916C-95.1152 142.392 -85.8848 142.392 -79.8926 137.916C-71.5547 131.688 -61.207 128 -50 128C-38.793 128 -28.4453 131.688 -20.1074 137.916C-14.1152 142.392 -4.88477 142.392 1.10742 137.916C9.44531 131.688 19.793 128 31 128C42.207 128 52.5547 131.688 60.8926 137.916C66.8848 142.392 76.1152 142.392 82.1074 137.916C90.4453 131.688 100.793 128 112 128C123.207 128 133.555 131.688 141.893 137.916C147.885 142.392 157.115 142.392 163.107 137.916C171.445 131.688 181.793 128 193 128C204.207 128 214.555 131.688 222.893 137.916C228.885 142.392 238.115 142.392 244.107 137.916C252.445 131.688 262.793 128 274 128C285.207 128 295.555 131.688 303.893 137.916C309.885 142.392 319.115 142.392 325.107 137.916C333.445 131.688 343.793 128 355 128C366.207 128 376.555 131.688 384.893 137.916C390.885 142.392 400.115 142.392 406.107 137.916C414.445 131.688 424.793 128 436 128C447.207 128 457.555 131.688 465.893 137.916C471.885 142.392 481.115 142.392 487.107 137.916C495.445 131.688 505.793 128 517 128C528.207 128 538.555 131.688 546.893 137.916C552.885 142.392 562.115 142.392 568.107 137.916C576.445 131.688 586.793 128 598 128C609.207 128 619.555 131.688 627.893 137.916C633.885 142.392 643.115 142.392 649.107 137.916C657.445 131.688 667.793 128 679 128C690.207 128 700.555 131.688 708.893 137.916C714.885 142.392 724.115 142.392 730.107 137.916C738.445 131.688 748.793 128 760 128C771.207 128 781.555 131.688 789.893 137.916C795.885 142.392 805.115 142.392 811.107 137.916C819.445 131.688 829.793 128 841 128C852.207 128 862.555 131.688 870.893 137.916C876.885 142.392 886.115 142.392 892.107 137.916C900.445 131.688 910.793 128 922 128C933.207 128 943.555 131.688 951.893 137.916C957.885 142.392 967.115 142.392 973.107 137.916C981.445 131.688 991.793 128 1003 128C1014.21 128 1024.55 131.688 1032.89 137.916C1038.88 142.392 1048.12 142.392 1054.11 137.916C1062.45 131.688 1072.79 128 1084 128C1095.21 128 1105.55 131.688 1113.89 137.916C1119.88 142.392 1129.12 142.392 1135.11 137.916C1143.45 131.688 1153.79 128 1165 128C1176.21 128 1186.55 131.688 1194.89 137.916C1200.88 142.392 1210.12 142.392 1216.11 137.916C1224.45 131.688 1234.79 128 1246 128C1257.21 128 1267.55 131.688 1275.89 137.916C1281.88 142.392 1291.12 142.392 1297.11 137.916C1305.45 131.688 1315.79 128 1327 128C1338.21 128 1348.55 131.688 1356.89 137.916C1362.88 142.392 1372.12 142.392 1378.11 137.916C1386.45 131.688 1396.79 128 1408 128C1419.21 128 1429.55 131.688 1437.89 137.916C1443.88 142.392 1453.12 142.392 1459.11 137.916C1467.45 131.688 1477.79 128 1489 128C1500.21 128 1510.55 131.688 1518.89 137.916C1524.88 142.392 1534.12 142.392 1540.11 137.916C1548.45 131.688 1558.79 128 1570 128C1581.21 128 1591.55 131.688 1599.89 137.916C1605.88 142.392 1615.12 142.392 1621.11 137.916C1629.45 131.688 1639.79 128 1651 128Z" fill="#E9F9FC"/>
<path d="M1651 204C1678.61 204 1701 226.386 1701 254V547H-262V254C-262 226.386 -239.613 204 -212 204C-200.793 204 -190.445 207.688 -182.107 213.916C-176.115 218.392 -166.885 218.392 -160.893 213.916C-152.555 207.688 -142.207 204 -131 204C-119.793 204 -109.445 207.688 -101.107 213.916C-95.1152 218.392 -85.8848 218.392 -79.8926 213.916C-71.5547 207.688 -61.207 204 -50 204C-38.793 204 -28.4453 207.688 -20.1074 213.916C-14.1152 218.392 -4.88477 218.392 1.10742 213.916C9.44531 207.688 19.793 204 31 204C42.207 204 52.5547 207.688 60.8926 213.916C66.8848 218.392 76.1152 218.392 82.1074 213.916C90.4453 207.688 100.793 204 112 204C123.207 204 133.555 207.688 141.893 213.916C147.885 218.392 157.115 218.392 163.107 213.916C171.445 207.688 181.793 204 193 204C204.207 204 214.555 207.688 222.893 213.916C228.885 218.392 238.115 218.392 244.107 213.916C252.445 207.688 262.793 204 274 204C285.207 204 295.555 207.688 303.893 213.916C309.885 218.392 319.115 218.392 325.107 213.916C333.445 207.688 343.793 204 355 204C366.207 204 376.555 207.688 384.893 213.916C390.885 218.392 400.115 218.392 406.107 213.916C414.445 207.688 424.793 204 436 204C447.207 204 457.555 207.688 465.893 213.916C471.885 218.392 481.115 218.392 487.107 213.916C495.445 207.688 505.793 204 517 204C528.207 204 538.555 207.688 546.893 213.916C552.885 218.392 562.115 218.392 568.107 213.916C576.445 207.688 586.793 204 598 204C609.207 204 619.555 207.688 627.893 213.916C633.885 218.392 643.115 218.392 649.107 213.916C657.445 207.688 667.793 204 679 204C690.207 204 700.555 207.688 708.893 213.916C714.885 218.392 724.115 218.392 730.107 213.916C738.445 207.688 748.793 204 760 204C771.207 204 781.555 207.688 789.893 213.916C795.885 218.392 805.115 218.392 811.107 213.916C819.445 207.688 829.793 204 841 204C852.207 204 862.555 207.688 870.893 213.916C876.885 218.392 886.115 218.392 892.107 213.916C900.445 207.688 910.793 204 922 204C933.207 204 943.555 207.688 951.893 213.916C957.885 218.392 967.115 218.392 973.107 213.916C981.445 207.688 991.793 204 1003 204C1014.21 204 1024.55 207.688 1032.89 213.916C1038.88 218.392 1048.12 218.392 1054.11 213.916C1062.45 207.688 1072.79 204 1084 204C1095.21 204 1105.55 207.688 1113.89 213.916C1119.88 218.392 1129.12 218.392 1135.11 213.916C1143.45 207.688 1153.79 204 1165 204C1176.21 204 1186.55 207.688 1194.89 213.916C1200.88 218.392 1210.12 218.392 1216.11 213.916C1224.45 207.688 1234.79 204 1246 204C1257.21 204 1267.55 207.688 1275.89 213.916C1281.88 218.392 1291.12 218.392 1297.11 213.916C1305.45 207.688 1315.79 204 1327 204C1338.21 204 1348.55 207.688 1356.89 213.916C1362.88 218.392 1372.12 218.392 1378.11 213.916C1386.45 207.688 1396.79 204 1408 204C1419.21 204 1429.55 207.688 1437.89 213.916C1443.88 218.392 1453.12 218.392 1459.11 213.916C1467.45 207.688 1477.79 204 1489 204C1500.21 204 1510.55 207.688 1518.89 213.916C1524.88 218.392 1534.12 218.392 1540.11 213.916C1548.45 207.688 1558.79 204 1570 204C1581.21 204 1591.55 207.688 1599.89 213.916C1605.88 218.392 1615.12 218.392 1621.11 213.916C1629.45 207.688 1639.79 204 1651 204Z" fill="#DDF3F8"/>
<rect y="-34" width="1440" height="429" fill="#0097B2"/>
<path d="M1651 280C1678.61 280 1701 302.386 1701 330V623H-262V330C-262 302.386 -239.613 280 -212 280C-200.793 280 -190.445 283.688 -182.107 289.916C-176.115 294.392 -166.885 294.392 -160.893 289.916C-152.555 283.688 -142.207 280 -131 280C-119.793 280 -109.445 283.688 -101.107 289.916C-95.1152 294.392 -85.8848 294.392 -79.8926 289.916C-71.5547 283.688 -61.207 280 -50 280C-38.793 280 -28.4453 283.688 -20.1074 289.916C-14.1152 294.392 -4.88477 294.392 1.10742 289.916C9.44531 283.688 19.793 280 31 280C42.207 280 52.5547 283.688 60.8926 289.916C66.8848 294.392 76.1152 294.392 82.1074 289.916C90.4453 283.688 100.793 280 112 280C123.207 280 133.555 283.688 141.893 289.916C147.885 294.392 157.115 294.392 163.107 289.916C171.445 283.688 181.793 280 193 280C204.207 280 214.555 283.688 222.893 289.916C228.885 294.392 238.115 294.392 244.107 289.916C252.445 283.688 262.793 280 274 280C285.207 280 295.555 283.688 303.893 289.916C309.885 294.392 319.115 294.392 325.107 289.916C333.445 283.688 343.793 280 355 280C366.207 280 376.555 283.688 384.893 289.916C390.885 294.392 400.115 294.392 406.107 289.916C414.445 283.688 424.793 280 436 280C447.207 280 457.555 283.688 465.893 289.916C471.885 294.392 481.115 294.392 487.107 289.916C495.445 283.688 505.793 280 517 280C528.207 280 538.555 283.688 546.893 289.916C552.885 294.392 562.115 294.392 568.107 289.916C576.445 283.688 586.793 280 598 280C609.207 280 619.555 283.688 627.893 289.916C633.885 294.392 643.115 294.392 649.107 289.916C657.445 283.688 667.793 280 679 280C690.207 280 700.555 283.688 708.893 289.916C714.885 294.392 724.115 294.392 730.107 289.916C738.445 283.688 748.793 280 760 280C771.207 280 781.555 283.688 789.893 289.916C795.885 294.392 805.115 294.392 811.107 289.916C819.445 283.688 829.793 280 841 280C852.207 280 862.555 283.688 870.893 289.916C876.885 294.392 886.115 294.392 892.107 289.916C900.445 283.688 910.793 280 922 280C933.207 280 943.555 283.688 951.893 289.916C957.885 294.392 967.115 294.392 973.107 289.916C981.445 283.688 991.793 280 1003 280C1014.21 280 1024.55 283.688 1032.89 289.916C1038.88 294.392 1048.12 294.392 1054.11 289.916C1062.45 283.688 1072.79 280 1084 280C1095.21 280 1105.55 283.688 1113.89 289.916C1119.88 294.392 1129.12 294.392 1135.11 289.916C1143.45 283.688 1153.79 280 1165 280C1176.21 280 1186.55 283.688 1194.89 289.916C1200.88 294.392 1210.12 294.392 1216.11 289.916C1224.45 283.688 1234.79 280 1246 280C1257.21 280 1267.55 283.688 1275.89 289.916C1281.88 294.392 1291.12 294.392 1297.11 289.916C1305.45 283.688 1315.79 280 1327 280C1338.21 280 1348.55 283.688 1356.89 289.916C1362.88 294.392 1372.12 294.392 1378.11 289.916C1386.45 283.688 1396.79 280 1408 280C1419.21 280 1429.55 283.688 1437.89 289.916C1443.88 294.392 1453.12 294.392 1459.11 289.916C1467.45 283.688 1477.79 280 1489 280C1500.21 280 1510.55 283.688 1518.89 289.916C1524.88 294.392 1534.12 294.392 1540.11 289.916C1548.45 283.688 1558.79 280 1570 280C1581.21 280 1591.55 283.688 1599.89 289.916C1605.88 294.392 1615.12 294.392 1621.11 289.916C1629.45 283.688 1639.79 280 1651 280Z" fill="#E9F9FC"/>
<path d="M1651 356C1678.61 356 1701 378.386 1701 406V699H-262V406C-262 378.386 -239.613 356 -212 356C-200.793 356 -190.445 359.688 -182.107 365.916C-176.115 370.392 -166.885 370.392 -160.893 365.916C-152.555 359.688 -142.207 356 -131 356C-119.793 356 -109.445 359.688 -101.107 365.916C-95.1152 370.392 -85.8848 370.392 -79.8926 365.916C-71.5547 359.688 -61.207 356 -50 356C-38.793 356 -28.4453 359.688 -20.1074 365.916C-14.1152 370.392 -4.88477 370.392 1.10742 365.916C9.44531 359.688 19.793 356 31 356C42.207 356 52.5547 359.688 60.8926 365.916C66.8848 370.392 76.1152 370.392 82.1074 365.916C90.4453 359.688 100.793 356 112 356C123.207 356 133.555 359.688 141.893 365.916C147.885 370.392 157.115 370.392 163.107 365.916C171.445 359.688 181.793 356 193 356C204.207 356 214.555 359.688 222.893 365.916C228.885 370.392 238.115 370.392 244.107 365.916C252.445 359.688 262.793 356 274 356C285.207 356 295.555 359.688 303.893 365.916C309.885 370.392 319.115 370.392 325.107 365.916C333.445 359.688 343.793 356 355 356C366.207 356 376.555 359.688 384.893 365.916C390.885 370.392 400.115 370.392 406.107 365.916C414.445 359.688 424.793 356 436 356C447.207 356 457.555 359.688 465.893 365.916C471.885 370.392 481.115 370.392 487.107 365.916C495.445 359.688 505.793 356 517 356C528.207 356 538.555 359.688 546.893 365.916C552.885 370.392 562.115 370.392 568.107 365.916C576.445 359.688 586.793 356 598 356C609.207 356 619.555 359.688 627.893 365.916C633.885 370.392 643.115 370.392 649.107 365.916C657.445 359.688 667.793 356 679 356C690.207 356 700.555 359.688 708.893 365.916C714.885 370.392 724.115 370.392 730.107 365.916C738.445 359.688 748.793 356 760 356C771.207 356 781.555 359.688 789.893 365.916C795.885 370.392 805.115 370.392 811.107 365.916C819.445 359.688 829.793 356 841 356C852.207 356 862.555 359.688 870.893 365.916C876.885 370.392 886.115 370.392 892.107 365.916C900.445 359.688 910.793 356 922 356C933.207 356 943.555 359.688 951.893 365.916C957.885 370.392 967.115 370.392 973.107 365.916C981.445 359.688 991.793 356 1003 356C1014.21 356 1024.55 359.688 1032.89 365.916C1038.88 370.392 1048.12 370.392 1054.11 365.916C1062.45 359.688 1072.79 356 1084 356C1095.21 356 1105.55 359.688 1113.89 365.916C1119.88 370.392 1129.12 370.392 1135.11 365.916C1143.45 359.688 1153.79 356 1165 356C1176.21 356 1186.55 359.688 1194.89 365.916C1200.88 370.392 1210.12 370.392 1216.11 365.916C1224.45 359.688 1234.79 356 1246 356C1257.21 356 1267.55 359.688 1275.89 365.916C1281.88 370.392 1291.12 370.392 1297.11 365.916C1305.45 359.688 1315.79 356 1327 356C1338.21 356 1348.55 359.688 1356.89 365.916C1362.88 370.392 1372.12 370.392 1378.11 365.916C1386.45 359.688 1396.79 356 1408 356C1419.21 356 1429.55 359.688 1437.89 365.916C1443.88 370.392 1453.12 370.392 1459.11 365.916C1467.45 359.688 1477.79 356 1489 356C1500.21 356 1510.55 359.688 1518.89 365.916C1524.88 370.392 1534.12 370.392 1540.11 365.916C1548.45 359.688 1558.79 356 1570 356C1581.21 356 1591.55 359.688 1599.89 365.916C1605.88 370.392 1615.12 370.392 1621.11 365.916C1629.45 359.688 1639.79 356 1651 356Z" fill="#DDF3F8"/>
<path d="M1651 432C1678.61 432 1701 454.386 1701 482V775H-262V482C-262 454.386 -239.613 432 -212 432C-200.793 432 -190.445 435.688 -182.107 441.916C-176.115 446.392 -166.885 446.392 -160.893 441.916C-152.555 435.688 -142.207 432 -131 432C-119.793 432 -109.445 435.688 -101.107 441.916C-95.1152 446.392 -85.8848 446.392 -79.8926 441.916C-71.5547 435.688 -61.207 432 -50 432C-38.793 432 -28.4453 435.688 -20.1074 441.916C-14.1152 446.392 -4.88477 446.392 1.10742 441.916C9.44531 435.688 19.793 432 31 432C42.207 432 52.5547 435.688 60.8926 441.916C66.8848 446.392 76.1152 446.392 82.1074 441.916C90.4453 435.688 100.793 432 112 432C123.207 432 133.555 435.688 141.893 441.916C147.885 446.392 157.115 446.392 163.107 441.916C171.445 435.688 181.793 432 193 432C204.207 432 214.555 435.688 222.893 441.916C228.885 446.392 238.115 446.392 244.107 441.916C252.445 435.688 262.793 432 274 432C285.207 432 295.555 435.688 303.893 441.916C309.885 446.392 319.115 446.392 325.107 441.916C333.445 435.688 343.793 432 355 432C366.207 432 376.555 435.688 384.893 441.916C390.885 446.392 400.115 446.392 406.107 441.916C414.445 435.688 424.793 432 436 432C447.207 432 457.555 435.688 465.893 441.916C471.885 446.392 481.115 446.392 487.107 441.916C495.445 435.688 505.793 432 517 432C528.207 432 538.555 435.688 546.893 441.916C552.885 446.392 562.115 446.392 568.107 441.916C576.445 435.688 586.793 432 598 432C609.207 432 619.555 435.688 627.893 441.916C633.885 446.392 643.115 446.392 649.107 441.916C657.445 435.688 667.793 432 679 432C690.207 432 700.555 435.688 708.893 441.916C714.885 446.392 724.115 446.392 730.107 441.916C738.445 435.688 748.793 432 760 432C771.207 432 781.555 435.688 789.893 441.916C795.885 446.392 805.115 446.392 811.107 441.916C819.445 435.688 829.793 432 841 432C852.207 432 862.555 435.688 870.893 441.916C876.885 446.392 886.115 446.392 892.107 441.916C900.445 435.688 910.793 432 922 432C933.207 432 943.555 435.688 951.893 441.916C957.885 446.392 967.115 446.392 973.107 441.916C981.445 435.688 991.793 432 1003 432C1014.21 432 1024.55 435.688 1032.89 441.916C1038.88 446.392 1048.12 446.392 1054.11 441.916C1062.45 435.688 1072.79 432 1084 432C1095.21 432 1105.55 435.688 1113.89 441.916C1119.88 446.392 1129.12 446.392 1135.11 441.916C1143.45 435.688 1153.79 432 1165 432C1176.21 432 1186.55 435.688 1194.89 441.916C1200.88 446.392 1210.12 446.392 1216.11 441.916C1224.45 435.688 1234.79 432 1246 432C1257.21 432 1267.55 435.688 1275.89 441.916C1281.88 446.392 1291.12 446.392 1297.11 441.916C1305.45 435.688 1315.79 432 1327 432C1338.21 432 1348.55 435.688 1356.89 441.916C1362.88 446.392 1372.12 446.392 1378.11 441.916C1386.45 435.688 1396.79 432 1408 432C1419.21 432 1429.55 435.688 1437.89 441.916C1443.88 446.392 1453.12 446.392 1459.11 441.916C1467.45 435.688 1477.79 432 1489 432C1500.21 432 1510.55 435.688 1518.89 441.916C1524.88 446.392 1534.12 446.392 1540.11 441.916C1548.45 435.688 1558.79 432 1570 432C1581.21 432 1591.55 435.688 1599.89 441.916C1605.88 446.392 1615.12 446.392 1621.11 441.916C1629.45 435.688 1639.79 432 1651 432Z" fill="#E9F9FC"/>
<path d="M1651 508C1678.61 508 1701 530.386 1701 558V851H-262V558C-262 530.386 -239.613 508 -212 508C-200.793 508 -190.445 511.688 -182.107 517.916C-176.115 522.392 -166.885 522.392 -160.893 517.916C-152.555 511.688 -142.207 508 -131 508C-119.793 508 -109.445 511.688 -101.107 517.916C-95.1152 522.392 -85.8848 522.392 -79.8926 517.916C-71.5547 511.688 -61.207 508 -50 508C-38.793 508 -28.4453 511.688 -20.1074 517.916C-14.1152 522.392 -4.88477 522.392 1.10742 517.916C9.44531 511.688 19.793 508 31 508C42.207 508 52.5547 511.688 60.8926 517.916C66.8848 522.392 76.1152 522.392 82.1074 517.916C90.4453 511.688 100.793 508 112 508C123.207 508 133.555 511.688 141.893 517.916C147.885 522.392 157.115 522.392 163.107 517.916C171.445 511.688 181.793 508 193 508C204.207 508 214.555 511.688 222.893 517.916C228.885 522.392 238.115 522.392 244.107 517.916C252.445 511.688 262.793 508 274 508C285.207 508 295.555 511.688 303.893 517.916C309.885 522.392 319.115 522.392 325.107 517.916C333.445 511.688 343.793 508 355 508C366.207 508 376.555 511.688 384.893 517.916C390.885 522.392 400.115 522.392 406.107 517.916C414.445 511.688 424.793 508 436 508C447.207 508 457.555 511.688 465.893 517.916C471.885 522.392 481.115 522.392 487.107 517.916C495.445 511.688 505.793 508 517 508C528.207 508 538.555 511.688 546.893 517.916C552.885 522.392 562.115 522.392 568.107 517.916C576.445 511.688 586.793 508 598 508C609.207 508 619.555 511.688 627.893 517.916C633.885 522.392 643.115 522.392 649.107 517.916C657.445 511.688 667.793 508 679 508C690.207 508 700.555 511.688 708.893 517.916C714.885 522.392 724.115 522.392 730.107 517.916C738.445 511.688 748.793 508 760 508C771.207 508 781.555 511.688 789.893 517.916C795.885 522.392 805.115 522.392 811.107 517.916C819.445 511.688 829.793 508 841 508C852.207 508 862.555 511.688 870.893 517.916C876.885 522.392 886.115 522.392 892.107 517.916C900.445 511.688 910.793 508 922 508C933.207 508 943.555 511.688 951.893 517.916C957.885 522.392 967.115 522.392 973.107 517.916C981.445 511.688 991.793 508 1003 508C1014.21 508 1024.55 511.688 1032.89 517.916C1038.88 522.392 1048.12 522.392 1054.11 517.916C1062.45 511.688 1072.79 508 1084 508C1095.21 508 1105.55 511.688 1113.89 517.916C1119.88 522.392 1129.12 522.392 1135.11 517.916C1143.45 511.688 1153.79 508 1165 508C1176.21 508 1186.55 511.688 1194.89 517.916C1200.88 522.392 1210.12 522.392 1216.11 517.916C1224.45 511.688 1234.79 508 1246 508C1257.21 508 1267.55 511.688 1275.89 517.916C1281.88 522.392 1291.12 522.392 1297.11 517.916C1305.45 511.688 1315.79 508 1327 508C1338.21 508 1348.55 511.688 1356.89 517.916C1362.88 522.392 1372.12 522.392 1378.11 517.916C1386.45 511.688 1396.79 508 1408 508C1419.21 508 1429.55 511.688 1437.89 517.916C1443.88 522.392 1453.12 522.392 1459.11 517.916C1467.45 511.688 1477.79 508 1489 508C1500.21 508 1510.55 511.688 1518.89 517.916C1524.88 522.392 1534.12 522.392 1540.11 517.916C1548.45 511.688 1558.79 508 1570 508C1581.21 508 1591.55 511.688 1599.89 517.916C1605.88 522.392 1615.12 522.392 1621.11 517.916C1629.45 511.688 1639.79 508 1651 508Z" fill="#DDF3F8"/>
<path d="M1651 584C1678.61 584 1701 606.386 1701 634V927H-262V634C-262 606.386 -239.613 584 -212 584C-200.793 584 -190.445 587.688 -182.107 593.916C-176.115 598.392 -166.885 598.392 -160.893 593.916C-152.555 587.688 -142.207 584 -131 584C-119.793 584 -109.445 587.688 -101.107 593.916C-95.1152 598.392 -85.8848 598.392 -79.8926 593.916C-71.5547 587.688 -61.207 584 -50 584C-38.793 584 -28.4453 587.688 -20.1074 593.916C-14.1152 598.392 -4.88477 598.392 1.10742 593.916C9.44531 587.688 19.793 584 31 584C42.207 584 52.5547 587.688 60.8926 593.916C66.8848 598.392 76.1152 598.392 82.1074 593.916C90.4453 587.688 100.793 584 112 584C123.207 584 133.555 587.688 141.893 593.916C147.885 598.392 157.115 598.392 163.107 593.916C171.445 587.688 181.793 584 193 584C204.207 584 214.555 587.688 222.893 593.916C228.885 598.392 238.115 598.392 244.107 593.916C252.445 587.688 262.793 584 274 584C285.207 584 295.555 587.688 303.893 593.916C309.885 598.392 319.115 598.392 325.107 593.916C333.445 587.688 343.793 584 355 584C366.207 584 376.555 587.688 384.893 593.916C390.885 598.392 400.115 598.392 406.107 593.916C414.445 587.688 424.793 584 436 584C447.207 584 457.555 587.688 465.893 593.916C471.885 598.392 481.115 598.392 487.107 593.916C495.445 587.688 505.793 584 517 584C528.207 584 538.555 587.688 546.893 593.916C552.885 598.392 562.115 598.392 568.107 593.916C576.445 587.688 586.793 584 598 584C609.207 584 619.555 587.688 627.893 593.916C633.885 598.392 643.115 598.392 649.107 593.916C657.445 587.688 667.793 584 679 584C690.207 584 700.555 587.688 708.893 593.916C714.885 598.392 724.115 598.392 730.107 593.916C738.445 587.688 748.793 584 760 584C771.207 584 781.555 587.688 789.893 593.916C795.885 598.392 805.115 598.392 811.107 593.916C819.445 587.688 829.793 584 841 584C852.207 584 862.555 587.688 870.893 593.916C876.885 598.392 886.115 598.392 892.107 593.916C900.445 587.688 910.793 584 922 584C933.207 584 943.555 587.688 951.893 593.916C957.885 598.392 967.115 598.392 973.107 593.916C981.445 587.688 991.793 584 1003 584C1014.21 584 1024.55 587.688 1032.89 593.916C1038.88 598.392 1048.12 598.392 1054.11 593.916C1062.45 587.688 1072.79 584 1084 584C1095.21 584 1105.55 587.688 1113.89 593.916C1119.88 598.392 1129.12 598.392 1135.11 593.916C1143.45 587.688 1153.79 584 1165 584C1176.21 584 1186.55 587.688 1194.89 593.916C1200.88 598.392 1210.12 598.392 1216.11 593.916C1224.45 587.688 1234.79 584 1246 584C1257.21 584 1267.55 587.688 1275.89 593.916C1281.88 598.392 1291.12 598.392 1297.11 593.916C1305.45 587.688 1315.79 584 1327 584C1338.21 584 1348.55 587.688 1356.89 593.916C1362.88 598.392 1372.12 598.392 1378.11 593.916C1386.45 587.688 1396.79 584 1408 584C1419.21 584 1429.55 587.688 1437.89 593.916C1443.88 598.392 1453.12 598.392 1459.11 593.916C1467.45 587.688 1477.79 584 1489 584C1500.21 584 1510.55 587.688 1518.89 593.916C1524.88 598.392 1534.12 598.392 1540.11 593.916C1548.45 587.688 1558.79 584 1570 584C1581.21 584 1591.55 587.688 1599.89 593.916C1605.88 598.392 1615.12 598.392 1621.11 593.916C1629.45 587.688 1639.79 584 1651 584Z" fill="#E9F9FC"/>
</g>
</g>
</g>
<path d="M1651 588C1678.61 588 1701 610.386 1701 638V931H-262V638C-262 610.386 -239.613 588 -212 588C-200.793 588 -190.445 591.688 -182.107 597.916C-176.115 602.392 -166.885 602.392 -160.893 597.916C-152.555 591.688 -142.207 588 -131 588C-119.793 588 -109.445 591.688 -101.107 597.916C-95.1152 602.392 -85.8848 602.392 -79.8926 597.916C-71.5547 591.688 -61.207 588 -50 588C-38.793 588 -28.4453 591.688 -20.1074 597.916C-14.1152 602.392 -4.88477 602.392 1.10742 597.916C9.44531 591.688 19.793 588 31 588C42.207 588 52.5547 591.688 60.8926 597.916C66.8848 602.392 76.1152 602.392 82.1074 597.916C90.4453 591.688 100.793 588 112 588C123.207 588 133.555 591.688 141.893 597.916C147.885 602.392 157.115 602.392 163.107 597.916C171.445 591.688 181.793 588 193 588C204.207 588 214.555 591.688 222.893 597.916C228.885 602.392 238.115 602.392 244.107 597.916C252.445 591.688 262.793 588 274 588C285.207 588 295.555 591.688 303.893 597.916C309.885 602.392 319.115 602.392 325.107 597.916C333.445 591.688 343.793 588 355 588C366.207 588 376.555 591.688 384.893 597.916C390.885 602.392 400.115 602.392 406.107 597.916C414.445 591.688 424.793 588 436 588C447.207 588 457.555 591.688 465.893 597.916C471.885 602.392 481.115 602.392 487.107 597.916C495.445 591.688 505.793 588 517 588C528.207 588 538.555 591.688 546.893 597.916C552.885 602.392 562.115 602.392 568.107 597.916C576.445 591.688 586.793 588 598 588C609.207 588 619.555 591.688 627.893 597.916C633.885 602.392 643.115 602.392 649.107 597.916C657.445 591.688 667.793 588 679 588C690.207 588 700.555 591.688 708.893 597.916C714.885 602.392 724.115 602.392 730.107 597.916C738.445 591.688 748.793 588 760 588C771.207 588 781.555 591.688 789.893 597.916C795.885 602.392 805.115 602.392 811.107 597.916C819.445 591.688 829.793 588 841 588C852.207 588 862.555 591.688 870.893 597.916C876.885 602.392 886.115 602.392 892.107 597.916C900.445 591.688 910.793 588 922 588C933.207 588 943.555 591.688 951.893 597.916C957.885 602.392 967.115 602.392 973.107 597.916C981.445 591.688 991.793 588 1003 588C1014.21 588 1024.55 591.688 1032.89 597.916C1038.88 602.392 1048.12 602.392 1054.11 597.916C1062.45 591.688 1072.79 588 1084 588C1095.21 588 1105.55 591.688 1113.89 597.916C1119.88 602.392 1129.12 602.392 1135.11 597.916C1143.45 591.688 1153.79 588 1165 588C1176.21 588 1186.55 591.688 1194.89 597.916C1200.88 602.392 1210.12 602.392 1216.11 597.916C1224.45 591.688 1234.79 588 1246 588C1257.21 588 1267.55 591.688 1275.89 597.916C1281.88 602.392 1291.12 602.392 1297.11 597.916C1305.45 591.688 1315.79 588 1327 588C1338.21 588 1348.55 591.688 1356.89 597.916C1362.88 602.392 1372.12 602.392 1378.11 597.916C1386.45 591.688 1396.79 588 1408 588C1419.21 588 1429.55 591.688 1437.89 597.916C1443.88 602.392 1453.12 602.392 1459.11 597.916C1467.45 591.688 1477.79 588 1489 588C1500.21 588 1510.55 591.688 1518.89 597.916C1524.88 602.392 1534.12 602.392 1540.11 597.916C1548.45 591.688 1558.79 588 1570 588C1581.21 588 1591.55 591.688 1599.89 597.916C1605.88 602.392 1615.12 602.392 1621.11 597.916C1629.45 591.688 1639.79 588 1651 588Z" fill="#E9F9FC"/>
<path d="M1651 584C1678.61 584 1701 606.386 1701 634V927H-262V634C-262 606.386 -239.613 584 -212 584C-200.793 584 -190.445 587.688 -182.107 593.916C-176.115 598.392 -166.885 598.392 -160.893 593.916C-152.555 587.688 -142.207 584 -131 584C-119.793 584 -109.445 587.688 -101.107 593.916C-95.1152 598.392 -85.8848 598.392 -79.8926 593.916C-71.5547 587.688 -61.207 584 -50 584C-38.793 584 -28.4453 587.688 -20.1074 593.916C-14.1152 598.392 -4.88477 598.392 1.10742 593.916C9.44531 587.688 19.793 584 31 584C42.207 584 52.5547 587.688 60.8926 593.916C66.8848 598.392 76.1152 598.392 82.1074 593.916C90.4453 587.688 100.793 584 112 584C123.207 584 133.555 587.688 141.893 593.916C147.885 598.392 157.115 598.392 163.107 593.916C171.445 587.688 181.793 584 193 584C204.207 584 214.555 587.688 222.893 593.916C228.885 598.392 238.115 598.392 244.107 593.916C252.445 587.688 262.793 584 274 584C285.207 584 295.555 587.688 303.893 593.916C309.885 598.392 319.115 598.392 325.107 593.916C333.445 587.688 343.793 584 355 584C366.207 584 376.555 587.688 384.893 593.916C390.885 598.392 400.115 598.392 406.107 593.916C414.445 587.688 424.793 584 436 584C447.207 584 457.555 587.688 465.893 593.916C471.885 598.392 481.115 598.392 487.107 593.916C495.445 587.688 505.793 584 517 584C528.207 584 538.555 587.688 546.893 593.916C552.885 598.392 562.115 598.392 568.107 593.916C576.445 587.688 586.793 584 598 584C609.207 584 619.555 587.688 627.893 593.916C633.885 598.392 643.115 598.392 649.107 593.916C657.445 587.688 667.793 584 679 584C690.207 584 700.555 587.688 708.893 593.916C714.885 598.392 724.115 598.392 730.107 593.916C738.445 587.688 748.793 584 760 584C771.207 584 781.555 587.688 789.893 593.916C795.885 598.392 805.115 598.392 811.107 593.916C819.445 587.688 829.793 584 841 584C852.207 584 862.555 587.688 870.893 593.916C876.885 598.392 886.115 598.392 892.107 593.916C900.445 587.688 910.793 584 922 584C933.207 584 943.555 587.688 951.893 593.916C957.885 598.392 967.115 598.392 973.107 593.916C981.445 587.688 991.793 584 1003 584C1014.21 584 1024.55 587.688 1032.89 593.916C1038.88 598.392 1048.12 598.392 1054.11 593.916C1062.45 587.688 1072.79 584 1084 584C1095.21 584 1105.55 587.688 1113.89 593.916C1119.88 598.392 1129.12 598.392 1135.11 593.916C1143.45 587.688 1153.79 584 1165 584C1176.21 584 1186.55 587.688 1194.89 593.916C1200.88 598.392 1210.12 598.392 1216.11 593.916C1224.45 587.688 1234.79 584 1246 584C1257.21 584 1267.55 587.688 1275.89 593.916C1281.88 598.392 1291.12 598.392 1297.11 593.916C1305.45 587.688 1315.79 584 1327 584C1338.21 584 1348.55 587.688 1356.89 593.916C1362.88 598.392 1372.12 598.392 1378.11 593.916C1386.45 587.688 1396.79 584 1408 584C1419.21 584 1429.55 587.688 1437.89 593.916C1443.88 598.392 1453.12 598.392 1459.11 593.916C1467.45 587.688 1477.79 584 1489 584C1500.21 584 1510.55 587.688 1518.89 593.916C1524.88 598.392 1534.12 598.392 1540.11 593.916C1548.45 587.688 1558.79 584 1570 584C1581.21 584 1591.55 587.688 1599.89 593.916C1605.88 598.392 1615.12 598.392 1621.11 593.916C1629.45 587.688 1639.79 584 1651 584Z" fill="#E9F9FC"/>
<path d="M1651 664C1678.61 664 1701 686.386 1701 714V1007H-262V714C-262 686.386 -239.613 664 -212 664C-200.793 664 -190.445 667.688 -182.107 673.916C-176.115 678.392 -166.885 678.392 -160.893 673.916C-152.555 667.688 -142.207 664 -131 664C-119.793 664 -109.445 667.688 -101.107 673.916C-95.1152 678.392 -85.8848 678.392 -79.8926 673.916C-71.5547 667.688 -61.207 664 -50 664C-38.793 664 -28.4453 667.688 -20.1074 673.916C-14.1152 678.392 -4.88477 678.392 1.10742 673.916C9.44531 667.688 19.793 664 31 664C42.207 664 52.5547 667.688 60.8926 673.916C66.8848 678.392 76.1152 678.392 82.1074 673.916C90.4453 667.688 100.793 664 112 664C123.207 664 133.555 667.688 141.893 673.916C147.885 678.392 157.115 678.392 163.107 673.916C171.445 667.688 181.793 664 193 664C204.207 664 214.555 667.688 222.893 673.916C228.885 678.392 238.115 678.392 244.107 673.916C252.445 667.688 262.793 664 274 664C285.207 664 295.555 667.688 303.893 673.916C309.885 678.392 319.115 678.392 325.107 673.916C333.445 667.688 343.793 664 355 664C366.207 664 376.555 667.688 384.893 673.916C390.885 678.392 400.115 678.392 406.107 673.916C414.445 667.688 424.793 664 436 664C447.207 664 457.555 667.688 465.893 673.916C471.885 678.392 481.115 678.392 487.107 673.916C495.445 667.688 505.793 664 517 664C528.207 664 538.555 667.688 546.893 673.916C552.885 678.392 562.115 678.392 568.107 673.916C576.445 667.688 586.793 664 598 664C609.207 664 619.555 667.688 627.893 673.916C633.885 678.392 643.115 678.392 649.107 673.916C657.445 667.688 667.793 664 679 664C690.207 664 700.555 667.688 708.893 673.916C714.885 678.392 724.115 678.392 730.107 673.916C738.445 667.688 748.793 664 760 664C771.207 664 781.555 667.688 789.893 673.916C795.885 678.392 805.115 678.392 811.107 673.916C819.445 667.688 829.793 664 841 664C852.207 664 862.555 667.688 870.893 673.916C876.885 678.392 886.115 678.392 892.107 673.916C900.445 667.688 910.793 664 922 664C933.207 664 943.555 667.688 951.893 673.916C957.885 678.392 967.115 678.392 973.107 673.916C981.445 667.688 991.793 664 1003 664C1014.21 664 1024.55 667.688 1032.89 673.916C1038.88 678.392 1048.12 678.392 1054.11 673.916C1062.45 667.688 1072.79 664 1084 664C1095.21 664 1105.55 667.688 1113.89 673.916C1119.88 678.392 1129.12 678.392 1135.11 673.916C1143.45 667.688 1153.79 664 1165 664C1176.21 664 1186.55 667.688 1194.89 673.916C1200.88 678.392 1210.12 678.392 1216.11 673.916C1224.45 667.688 1234.79 664 1246 664C1257.21 664 1267.55 667.688 1275.89 673.916C1281.88 678.392 1291.12 678.392 1297.11 673.916C1305.45 667.688 1315.79 664 1327 664C1338.21 664 1348.55 667.688 1356.89 673.916C1362.88 678.392 1372.12 678.392 1378.11 673.916C1386.45 667.688 1396.79 664 1408 664C1419.21 664 1429.55 667.688 1437.89 673.916C1443.88 678.392 1453.12 678.392 1459.11 673.916C1467.45 667.688 1477.79 664 1489 664C1500.21 664 1510.55 667.688 1518.89 673.916C1524.88 678.392 1534.12 678.392 1540.11 673.916C1548.45 667.688 1558.79 664 1570 664C1581.21 664 1591.55 667.688 1599.89 673.916C1605.88 678.392 1615.12 678.392 1621.11 673.916C1629.45 667.688 1639.79 664 1651 664Z" fill="#DDF3F8"/>
<path d="M1651 660C1678.61 660 1701 682.386 1701 710V1003H-262V710C-262 682.386 -239.613 660 -212 660C-200.793 660 -190.445 663.688 -182.107 669.916C-176.115 674.392 -166.885 674.392 -160.893 669.916C-152.555 663.688 -142.207 660 -131 660C-119.793 660 -109.445 663.688 -101.107 669.916C-95.1152 674.392 -85.8848 674.392 -79.8926 669.916C-71.5547 663.688 -61.207 660 -50 660C-38.793 660 -28.4453 663.688 -20.1074 669.916C-14.1152 674.392 -4.88477 674.392 1.10742 669.916C9.44531 663.688 19.793 660 31 660C42.207 660 52.5547 663.688 60.8926 669.916C66.8848 674.392 76.1152 674.392 82.1074 669.916C90.4453 663.688 100.793 660 112 660C123.207 660 133.555 663.688 141.893 669.916C147.885 674.392 157.115 674.392 163.107 669.916C171.445 663.688 181.793 660 193 660C204.207 660 214.555 663.688 222.893 669.916C228.885 674.392 238.115 674.392 244.107 669.916C252.445 663.688 262.793 660 274 660C285.207 660 295.555 663.688 303.893 669.916C309.885 674.392 319.115 674.392 325.107 669.916C333.445 663.688 343.793 660 355 660C366.207 660 376.555 663.688 384.893 669.916C390.885 674.392 400.115 674.392 406.107 669.916C414.445 663.688 424.793 660 436 660C447.207 660 457.555 663.688 465.893 669.916C471.885 674.392 481.115 674.392 487.107 669.916C495.445 663.688 505.793 660 517 660C528.207 660 538.555 663.688 546.893 669.916C552.885 674.392 562.115 674.392 568.107 669.916C576.445 663.688 586.793 660 598 660C609.207 660 619.555 663.688 627.893 669.916C633.885 674.392 643.115 674.392 649.107 669.916C657.445 663.688 667.793 660 679 660C690.207 660 700.555 663.688 708.893 669.916C714.885 674.392 724.115 674.392 730.107 669.916C738.445 663.688 748.793 660 760 660C771.207 660 781.555 663.688 789.893 669.916C795.885 674.392 805.115 674.392 811.107 669.916C819.445 663.688 829.793 660 841 660C852.207 660 862.555 663.688 870.893 669.916C876.885 674.392 886.115 674.392 892.107 669.916C900.445 663.688 910.793 660 922 660C933.207 660 943.555 663.688 951.893 669.916C957.885 674.392 967.115 674.392 973.107 669.916C981.445 663.688 991.793 660 1003 660C1014.21 660 1024.55 663.688 1032.89 669.916C1038.88 674.392 1048.12 674.392 1054.11 669.916C1062.45 663.688 1072.79 660 1084 660C1095.21 660 1105.55 663.688 1113.89 669.916C1119.88 674.392 1129.12 674.392 1135.11 669.916C1143.45 663.688 1153.79 660 1165 660C1176.21 660 1186.55 663.688 1194.89 669.916C1200.88 674.392 1210.12 674.392 1216.11 669.916C1224.45 663.688 1234.79 660 1246 660C1257.21 660 1267.55 663.688 1275.89 669.916C1281.88 674.392 1291.12 674.392 1297.11 669.916C1305.45 663.688 1315.79 660 1327 660C1338.21 660 1348.55 663.688 1356.89 669.916C1362.88 674.392 1372.12 674.392 1378.11 669.916C1386.45 663.688 1396.79 660 1408 660C1419.21 660 1429.55 663.688 1437.89 669.916C1443.88 674.392 1453.12 674.392 1459.11 669.916C1467.45 663.688 1477.79 660 1489 660C1500.21 660 1510.55 663.688 1518.89 669.916C1524.88 674.392 1534.12 674.392 1540.11 669.916C1548.45 663.688 1558.79 660 1570 660C1581.21 660 1591.55 663.688 1599.89 669.916C1605.88 674.392 1615.12 674.392 1621.11 669.916C1629.45 663.688 1639.79 660 1651 660Z" fill="#DDF3F8"/>
<path d="M1651 740C1678.61 740 1701 762.386 1701 790V1083H-262V790C-262 762.386 -239.613 740 -212 740C-200.793 740 -190.445 743.688 -182.107 749.916C-176.115 754.392 -166.885 754.392 -160.893 749.916C-152.555 743.688 -142.207 740 -131 740C-119.793 740 -109.445 743.688 -101.107 749.916C-95.1152 754.392 -85.8848 754.392 -79.8926 749.916C-71.5547 743.688 -61.207 740 -50 740C-38.793 740 -28.4453 743.688 -20.1074 749.916C-14.1152 754.392 -4.88477 754.392 1.10742 749.916C9.44531 743.688 19.793 740 31 740C42.207 740 52.5547 743.688 60.8926 749.916C66.8848 754.392 76.1152 754.392 82.1074 749.916C90.4453 743.688 100.793 740 112 740C123.207 740 133.555 743.688 141.893 749.916C147.885 754.392 157.115 754.392 163.107 749.916C171.445 743.688 181.793 740 193 740C204.207 740 214.555 743.688 222.893 749.916C228.885 754.392 238.115 754.392 244.107 749.916C252.445 743.688 262.793 740 274 740C285.207 740 295.555 743.688 303.893 749.916C309.885 754.392 319.115 754.392 325.107 749.916C333.445 743.688 343.793 740 355 740C366.207 740 376.555 743.688 384.893 749.916C390.885 754.392 400.115 754.392 406.107 749.916C414.445 743.688 424.793 740 436 740C447.207 740 457.555 743.688 465.893 749.916C471.885 754.392 481.115 754.392 487.107 749.916C495.445 743.688 505.793 740 517 740C528.207 740 538.555 743.688 546.893 749.916C552.885 754.392 562.115 754.392 568.107 749.916C576.445 743.688 586.793 740 598 740C609.207 740 619.555 743.688 627.893 749.916C633.885 754.392 643.115 754.392 649.107 749.916C657.445 743.688 667.793 740 679 740C690.207 740 700.555 743.688 708.893 749.916C714.885 754.392 724.115 754.392 730.107 749.916C738.445 743.688 748.793 740 760 740C771.207 740 781.555 743.688 789.893 749.916C795.885 754.392 805.115 754.392 811.107 749.916C819.445 743.688 829.793 740 841 740C852.207 740 862.555 743.688 870.893 749.916C876.885 754.392 886.115 754.392 892.107 749.916C900.445 743.688 910.793 740 922 740C933.207 740 943.555 743.688 951.893 749.916C957.885 754.392 967.115 754.392 973.107 749.916C981.445 743.688 991.793 740 1003 740C1014.21 740 1024.55 743.688 1032.89 749.916C1038.88 754.392 1048.12 754.392 1054.11 749.916C1062.45 743.688 1072.79 740 1084 740C1095.21 740 1105.55 743.688 1113.89 749.916C1119.88 754.392 1129.12 754.392 1135.11 749.916C1143.45 743.688 1153.79 740 1165 740C1176.21 740 1186.55 743.688 1194.89 749.916C1200.88 754.392 1210.12 754.392 1216.11 749.916C1224.45 743.688 1234.79 740 1246 740C1257.21 740 1267.55 743.688 1275.89 749.916C1281.88 754.392 1291.12 754.392 1297.11 749.916C1305.45 743.688 1315.79 740 1327 740C1338.21 740 1348.55 743.688 1356.89 749.916C1362.88 754.392 1372.12 754.392 1378.11 749.916C1386.45 743.688 1396.79 740 1408 740C1419.21 740 1429.55 743.688 1437.89 749.916C1443.88 754.392 1453.12 754.392 1459.11 749.916C1467.45 743.688 1477.79 740 1489 740C1500.21 740 1510.55 743.688 1518.89 749.916C1524.88 754.392 1534.12 754.392 1540.11 749.916C1548.45 743.688 1558.79 740 1570 740C1581.21 740 1591.55 743.688 1599.89 749.916C1605.88 754.392 1615.12 754.392 1621.11 749.916C1629.45 743.688 1639.79 740 1651 740Z" fill="#E9F9FC"/>
<path d="M1651 736C1678.61 736 1701 758.386 1701 786V1079H-262V786C-262 758.386 -239.613 736 -212 736C-200.793 736 -190.445 739.688 -182.107 745.916C-176.115 750.392 -166.885 750.392 -160.893 745.916C-152.555 739.688 -142.207 736 -131 736C-119.793 736 -109.445 739.688 -101.107 745.916C-95.1152 750.392 -85.8848 750.392 -79.8926 745.916C-71.5547 739.688 -61.207 736 -50 736C-38.793 736 -28.4453 739.688 -20.1074 745.916C-14.1152 750.392 -4.88477 750.392 1.10742 745.916C9.44531 739.688 19.793 736 31 736C42.207 736 52.5547 739.688 60.8926 745.916C66.8848 750.392 76.1152 750.392 82.1074 745.916C90.4453 739.688 100.793 736 112 736C123.207 736 133.555 739.688 141.893 745.916C147.885 750.392 157.115 750.392 163.107 745.916C171.445 739.688 181.793 736 193 736C204.207 736 214.555 739.688 222.893 745.916C228.885 750.392 238.115 750.392 244.107 745.916C252.445 739.688 262.793 736 274 736C285.207 736 295.555 739.688 303.893 745.916C309.885 750.392 319.115 750.392 325.107 745.916C333.445 739.688 343.793 736 355 736C366.207 736 376.555 739.688 384.893 745.916C390.885 750.392 400.115 750.392 406.107 745.916C414.445 739.688 424.793 736 436 736C447.207 736 457.555 739.688 465.893 745.916C471.885 750.392 481.115 750.392 487.107 745.916C495.445 739.688 505.793 736 517 736C528.207 736 538.555 739.688 546.893 745.916C552.885 750.392 562.115 750.392 568.107 745.916C576.445 739.688 586.793 736 598 736C609.207 736 619.555 739.688 627.893 745.916C633.885 750.392 643.115 750.392 649.107 745.916C657.445 739.688 667.793 736 679 736C690.207 736 700.555 739.688 708.893 745.916C714.885 750.392 724.115 750.392 730.107 745.916C738.445 739.688 748.793 736 760 736C771.207 736 781.555 739.688 789.893 745.916C795.885 750.392 805.115 750.392 811.107 745.916C819.445 739.688 829.793 736 841 736C852.207 736 862.555 739.688 870.893 745.916C876.885 750.392 886.115 750.392 892.107 745.916C900.445 739.688 910.793 736 922 736C933.207 736 943.555 739.688 951.893 745.916C957.885 750.392 967.115 750.392 973.107 745.916C981.445 739.688 991.793 736 1003 736C1014.21 736 1024.55 739.688 1032.89 745.916C1038.88 750.392 1048.12 750.392 1054.11 745.916C1062.45 739.688 1072.79 736 1084 736C1095.21 736 1105.55 739.688 1113.89 745.916C1119.88 750.392 1129.12 750.392 1135.11 745.916C1143.45 739.688 1153.79 736 1165 736C1176.21 736 1186.55 739.688 1194.89 745.916C1200.88 750.392 1210.12 750.392 1216.11 745.916C1224.45 739.688 1234.79 736 1246 736C1257.21 736 1267.55 739.688 1275.89 745.916C1281.88 750.392 1291.12 750.392 1297.11 745.916C1305.45 739.688 1315.79 736 1327 736C1338.21 736 1348.55 739.688 1356.89 745.916C1362.88 750.392 1372.12 750.392 1378.11 745.916C1386.45 739.688 1396.79 736 1408 736C1419.21 736 1429.55 739.688 1437.89 745.916C1443.88 750.392 1453.12 750.392 1459.11 745.916C1467.45 739.688 1477.79 736 1489 736C1500.21 736 1510.55 739.688 1518.89 745.916C1524.88 750.392 1534.12 750.392 1540.11 745.916C1548.45 739.688 1558.79 736 1570 736C1581.21 736 1591.55 739.688 1599.89 745.916C1605.88 750.392 1615.12 750.392 1621.11 745.916C1629.45 739.688 1639.79 736 1651 736Z" fill="#E9F9FC"/>
<path d="M1651 816C1678.61 816 1701 838.386 1701 866V1159H-262V866C-262 838.386 -239.613 816 -212 816C-200.793 816 -190.445 819.688 -182.107 825.916C-176.115 830.392 -166.885 830.392 -160.893 825.916C-152.555 819.688 -142.207 816 -131 816C-119.793 816 -109.445 819.688 -101.107 825.916C-95.1152 830.392 -85.8848 830.392 -79.8926 825.916C-71.5547 819.688 -61.207 816 -50 816C-38.793 816 -28.4453 819.688 -20.1074 825.916C-14.1152 830.392 -4.88477 830.392 1.10742 825.916C9.44531 819.688 19.793 816 31 816C42.207 816 52.5547 819.688 60.8926 825.916C66.8848 830.392 76.1152 830.392 82.1074 825.916C90.4453 819.688 100.793 816 112 816C123.207 816 133.555 819.688 141.893 825.916C147.885 830.392 157.115 830.392 163.107 825.916C171.445 819.688 181.793 816 193 816C204.207 816 214.555 819.688 222.893 825.916C228.885 830.392 238.115 830.392 244.107 825.916C252.445 819.688 262.793 816 274 816C285.207 816 295.555 819.688 303.893 825.916C309.885 830.392 319.115 830.392 325.107 825.916C333.445 819.688 343.793 816 355 816C366.207 816 376.555 819.688 384.893 825.916C390.885 830.392 400.115 830.392 406.107 825.916C414.445 819.688 424.793 816 436 816C447.207 816 457.555 819.688 465.893 825.916C471.885 830.392 481.115 830.392 487.107 825.916C495.445 819.688 505.793 816 517 816C528.207 816 538.555 819.688 546.893 825.916C552.885 830.392 562.115 830.392 568.107 825.916C576.445 819.688 586.793 816 598 816C609.207 816 619.555 819.688 627.893 825.916C633.885 830.392 643.115 830.392 649.107 825.916C657.445 819.688 667.793 816 679 816C690.207 816 700.555 819.688 708.893 825.916C714.885 830.392 724.115 830.392 730.107 825.916C738.445 819.688 748.793 816 760 816C771.207 816 781.555 819.688 789.893 825.916C795.885 830.392 805.115 830.392 811.107 825.916C819.445 819.688 829.793 816 841 816C852.207 816 862.555 819.688 870.893 825.916C876.885 830.392 886.115 830.392 892.107 825.916C900.445 819.688 910.793 816 922 816C933.207 816 943.555 819.688 951.893 825.916C957.885 830.392 967.115 830.392 973.107 825.916C981.445 819.688 991.793 816 1003 816C1014.21 816 1024.55 819.688 1032.89 825.916C1038.88 830.392 1048.12 830.392 1054.11 825.916C1062.45 819.688 1072.79 816 1084 816C1095.21 816 1105.55 819.688 1113.89 825.916C1119.88 830.392 1129.12 830.392 1135.11 825.916C1143.45 819.688 1153.79 816 1165 816C1176.21 816 1186.55 819.688 1194.89 825.916C1200.88 830.392 1210.12 830.392 1216.11 825.916C1224.45 819.688 1234.79 816 1246 816C1257.21 816 1267.55 819.688 1275.89 825.916C1281.88 830.392 1291.12 830.392 1297.11 825.916C1305.45 819.688 1315.79 816 1327 816C1338.21 816 1348.55 819.688 1356.89 825.916C1362.88 830.392 1372.12 830.392 1378.11 825.916C1386.45 819.688 1396.79 816 1408 816C1419.21 816 1429.55 819.688 1437.89 825.916C1443.88 830.392 1453.12 830.392 1459.11 825.916C1467.45 819.688 1477.79 816 1489 816C1500.21 816 1510.55 819.688 1518.89 825.916C1524.88 830.392 1534.12 830.392 1540.11 825.916C1548.45 819.688 1558.79 816 1570 816C1581.21 816 1591.55 819.688 1599.89 825.916C1605.88 830.392 1615.12 830.392 1621.11 825.916C1629.45 819.688 1639.79 816 1651 816Z" fill="#DDF3F8"/>
<path d="M1651 812C1678.61 812 1701 834.386 1701 862V1155H-262V862C-262 834.386 -239.613 812 -212 812C-200.793 812 -190.445 815.688 -182.107 821.916C-176.115 826.392 -166.885 826.392 -160.893 821.916C-152.555 815.688 -142.207 812 -131 812C-119.793 812 -109.445 815.688 -101.107 821.916C-95.1152 826.392 -85.8848 826.392 -79.8926 821.916C-71.5547 815.688 -61.207 812 -50 812C-38.793 812 -28.4453 815.688 -20.1074 821.916C-14.1152 826.392 -4.88477 826.392 1.10742 821.916C9.44531 815.688 19.793 812 31 812C42.207 812 52.5547 815.688 60.8926 821.916C66.8848 826.392 76.1152 826.392 82.1074 821.916C90.4453 815.688 100.793 812 112 812C123.207 812 133.555 815.688 141.893 821.916C147.885 826.392 157.115 826.392 163.107 821.916C171.445 815.688 181.793 812 193 812C204.207 812 214.555 815.688 222.893 821.916C228.885 826.392 238.115 826.392 244.107 821.916C252.445 815.688 262.793 812 274 812C285.207 812 295.555 815.688 303.893 821.916C309.885 826.392 319.115 826.392 325.107 821.916C333.445 815.688 343.793 812 355 812C366.207 812 376.555 815.688 384.893 821.916C390.885 826.392 400.115 826.392 406.107 821.916C414.445 815.688 424.793 812 436 812C447.207 812 457.555 815.688 465.893 821.916C471.885 826.392 481.115 826.392 487.107 821.916C495.445 815.688 505.793 812 517 812C528.207 812 538.555 815.688 546.893 821.916C552.885 826.392 562.115 826.392 568.107 821.916C576.445 815.688 586.793 812 598 812C609.207 812 619.555 815.688 627.893 821.916C633.885 826.392 643.115 826.392 649.107 821.916C657.445 815.688 667.793 812 679 812C690.207 812 700.555 815.688 708.893 821.916C714.885 826.392 724.115 826.392 730.107 821.916C738.445 815.688 748.793 812 760 812C771.207 812 781.555 815.688 789.893 821.916C795.885 826.392 805.115 826.392 811.107 821.916C819.445 815.688 829.793 812 841 812C852.207 812 862.555 815.688 870.893 821.916C876.885 826.392 886.115 826.392 892.107 821.916C900.445 815.688 910.793 812 922 812C933.207 812 943.555 815.688 951.893 821.916C957.885 826.392 967.115 826.392 973.107 821.916C981.445 815.688 991.793 812 1003 812C1014.21 812 1024.55 815.688 1032.89 821.916C1038.88 826.392 1048.12 826.392 1054.11 821.916C1062.45 815.688 1072.79 812 1084 812C1095.21 812 1105.55 815.688 1113.89 821.916C1119.88 826.392 1129.12 826.392 1135.11 821.916C1143.45 815.688 1153.79 812 1165 812C1176.21 812 1186.55 815.688 1194.89 821.916C1200.88 826.392 1210.12 826.392 1216.11 821.916C1224.45 815.688 1234.79 812 1246 812C1257.21 812 1267.55 815.688 1275.89 821.916C1281.88 826.392 1291.12 826.392 1297.11 821.916C1305.45 815.688 1315.79 812 1327 812C1338.21 812 1348.55 815.688 1356.89 821.916C1362.88 826.392 1372.12 826.392 1378.11 821.916C1386.45 815.688 1396.79 812 1408 812C1419.21 812 1429.55 815.688 1437.89 821.916C1443.88 826.392 1453.12 826.392 1459.11 821.916C1467.45 815.688 1477.79 812 1489 812C1500.21 812 1510.55 815.688 1518.89 821.916C1524.88 826.392 1534.12 826.392 1540.11 821.916C1548.45 815.688 1558.79 812 1570 812C1581.21 812 1591.55 815.688 1599.89 821.916C1605.88 826.392 1615.12 826.392 1621.11 821.916C1629.45 815.688 1639.79 812 1651 812Z" fill="#DDF3F8"/>
<path d="M1651 892C1678.61 892 1701 914.386 1701 942V1235H-262V942C-262 914.386 -239.613 892 -212 892C-200.793 892 -190.445 895.688 -182.107 901.916C-176.115 906.392 -166.885 906.392 -160.893 901.916C-152.555 895.688 -142.207 892 -131 892C-119.793 892 -109.445 895.688 -101.107 901.916C-95.1152 906.392 -85.8848 906.392 -79.8926 901.916C-71.5547 895.688 -61.207 892 -50 892C-38.793 892 -28.4453 895.688 -20.1074 901.916C-14.1152 906.392 -4.88477 906.392 1.10742 901.916C9.44531 895.688 19.793 892 31 892C42.207 892 52.5547 895.688 60.8926 901.916C66.8848 906.392 76.1152 906.392 82.1074 901.916C90.4453 895.688 100.793 892 112 892C123.207 892 133.555 895.688 141.893 901.916C147.885 906.392 157.115 906.392 163.107 901.916C171.445 895.688 181.793 892 193 892C204.207 892 214.555 895.688 222.893 901.916C228.885 906.392 238.115 906.392 244.107 901.916C252.445 895.688 262.793 892 274 892C285.207 892 295.555 895.688 303.893 901.916C309.885 906.392 319.115 906.392 325.107 901.916C333.445 895.688 343.793 892 355 892C366.207 892 376.555 895.688 384.893 901.916C390.885 906.392 400.115 906.392 406.107 901.916C414.445 895.688 424.793 892 436 892C447.207 892 457.555 895.688 465.893 901.916C471.885 906.392 481.115 906.392 487.107 901.916C495.445 895.688 505.793 892 517 892C528.207 892 538.555 895.688 546.893 901.916C552.885 906.392 562.115 906.392 568.107 901.916C576.445 895.688 586.793 892 598 892C609.207 892 619.555 895.688 627.893 901.916C633.885 906.392 643.115 906.392 649.107 901.916C657.445 895.688 667.793 892 679 892C690.207 892 700.555 895.688 708.893 901.916C714.885 906.392 724.115 906.392 730.107 901.916C738.445 895.688 748.793 892 760 892C771.207 892 781.555 895.688 789.893 901.916C795.885 906.392 805.115 906.392 811.107 901.916C819.445 895.688 829.793 892 841 892C852.207 892 862.555 895.688 870.893 901.916C876.885 906.392 886.115 906.392 892.107 901.916C900.445 895.688 910.793 892 922 892C933.207 892 943.555 895.688 951.893 901.916C957.885 906.392 967.115 906.392 973.107 901.916C981.445 895.688 991.793 892 1003 892C1014.21 892 1024.55 895.688 1032.89 901.916C1038.88 906.392 1048.12 906.392 1054.11 901.916C1062.45 895.688 1072.79 892 1084 892C1095.21 892 1105.55 895.688 1113.89 901.916C1119.88 906.392 1129.12 906.392 1135.11 901.916C1143.45 895.688 1153.79 892 1165 892C1176.21 892 1186.55 895.688 1194.89 901.916C1200.88 906.392 1210.12 906.392 1216.11 901.916C1224.45 895.688 1234.79 892 1246 892C1257.21 892 1267.55 895.688 1275.89 901.916C1281.88 906.392 1291.12 906.392 1297.11 901.916C1305.45 895.688 1315.79 892 1327 892C1338.21 892 1348.55 895.688 1356.89 901.916C1362.88 906.392 1372.12 906.392 1378.11 901.916C1386.45 895.688 1396.79 892 1408 892C1419.21 892 1429.55 895.688 1437.89 901.916C1443.88 906.392 1453.12 906.392 1459.11 901.916C1467.45 895.688 1477.79 892 1489 892C1500.21 892 1510.55 895.688 1518.89 901.916C1524.88 906.392 1534.12 906.392 1540.11 901.916C1548.45 895.688 1558.79 892 1570 892C1581.21 892 1591.55 895.688 1599.89 901.916C1605.88 906.392 1615.12 906.392 1621.11 901.916C1629.45 895.688 1639.79 892 1651 892Z" fill="#E9F9FC"/>
<path d="M1651 888C1678.61 888 1701 910.386 1701 938V1231H-262V938C-262 910.386 -239.613 888 -212 888C-200.793 888 -190.445 891.688 -182.107 897.916C-176.115 902.392 -166.885 902.392 -160.893 897.916C-152.555 891.688 -142.207 888 -131 888C-119.793 888 -109.445 891.688 -101.107 897.916C-95.1152 902.392 -85.8848 902.392 -79.8926 897.916C-71.5547 891.688 -61.207 888 -50 888C-38.793 888 -28.4453 891.688 -20.1074 897.916C-14.1152 902.392 -4.88477 902.392 1.10742 897.916C9.44531 891.688 19.793 888 31 888C42.207 888 52.5547 891.688 60.8926 897.916C66.8848 902.392 76.1152 902.392 82.1074 897.916C90.4453 891.688 100.793 888 112 888C123.207 888 133.555 891.688 141.893 897.916C147.885 902.392 157.115 902.392 163.107 897.916C171.445 891.688 181.793 888 193 888C204.207 888 214.555 891.688 222.893 897.916C228.885 902.392 238.115 902.392 244.107 897.916C252.445 891.688 262.793 888 274 888C285.207 888 295.555 891.688 303.893 897.916C309.885 902.392 319.115 902.392 325.107 897.916C333.445 891.688 343.793 888 355 888C366.207 888 376.555 891.688 384.893 897.916C390.885 902.392 400.115 902.392 406.107 897.916C414.445 891.688 424.793 888 436 888C447.207 888 457.555 891.688 465.893 897.916C471.885 902.392 481.115 902.392 487.107 897.916C495.445 891.688 505.793 888 517 888C528.207 888 538.555 891.688 546.893 897.916C552.885 902.392 562.115 902.392 568.107 897.916C576.445 891.688 586.793 888 598 888C609.207 888 619.555 891.688 627.893 897.916C633.885 902.392 643.115 902.392 649.107 897.916C657.445 891.688 667.793 888 679 888C690.207 888 700.555 891.688 708.893 897.916C714.885 902.392 724.115 902.392 730.107 897.916C738.445 891.688 748.793 888 760 888C771.207 888 781.555 891.688 789.893 897.916C795.885 902.392 805.115 902.392 811.107 897.916C819.445 891.688 829.793 888 841 888C852.207 888 862.555 891.688 870.893 897.916C876.885 902.392 886.115 902.392 892.107 897.916C900.445 891.688 910.793 888 922 888C933.207 888 943.555 891.688 951.893 897.916C957.885 902.392 967.115 902.392 973.107 897.916C981.445 891.688 991.793 888 1003 888C1014.21 888 1024.55 891.688 1032.89 897.916C1038.88 902.392 1048.12 902.392 1054.11 897.916C1062.45 891.688 1072.79 888 1084 888C1095.21 888 1105.55 891.688 1113.89 897.916C1119.88 902.392 1129.12 902.392 1135.11 897.916C1143.45 891.688 1153.79 888 1165 888C1176.21 888 1186.55 891.688 1194.89 897.916C1200.88 902.392 1210.12 902.392 1216.11 897.916C1224.45 891.688 1234.79 888 1246 888C1257.21 888 1267.55 891.688 1275.89 897.916C1281.88 902.392 1291.12 902.392 1297.11 897.916C1305.45 891.688 1315.79 888 1327 888C1338.21 888 1348.55 891.688 1356.89 897.916C1362.88 902.392 1372.12 902.392 1378.11 897.916C1386.45 891.688 1396.79 888 1408 888C1419.21 888 1429.55 891.688 1437.89 897.916C1443.88 902.392 1453.12 902.392 1459.11 897.916C1467.45 891.688 1477.79 888 1489 888C1500.21 888 1510.55 891.688 1518.89 897.916C1524.88 902.392 1534.12 902.392 1540.11 897.916C1548.45 891.688 1558.79 888 1570 888C1581.21 888 1591.55 891.688 1599.89 897.916C1605.88 902.392 1615.12 902.392 1621.11 897.916C1629.45 891.688 1639.79 888 1651 888Z" fill="#E9F9FC"/>
<path d="M1651 968C1678.61 968 1701 990.386 1701 1018V1311H-262V1018C-262 990.386 -239.613 968 -212 968C-200.793 968 -190.445 971.688 -182.107 977.916C-176.115 982.392 -166.885 982.392 -160.893 977.916C-152.555 971.688 -142.207 968 -131 968C-119.793 968 -109.445 971.688 -101.107 977.916C-95.1152 982.392 -85.8848 982.392 -79.8926 977.916C-71.5547 971.688 -61.207 968 -50 968C-38.793 968 -28.4453 971.688 -20.1074 977.916C-14.1152 982.392 -4.88477 982.392 1.10742 977.916C9.44531 971.688 19.793 968 31 968C42.207 968 52.5547 971.688 60.8926 977.916C66.8848 982.392 76.1152 982.392 82.1074 977.916C90.4453 971.688 100.793 968 112 968C123.207 968 133.555 971.688 141.893 977.916C147.885 982.392 157.115 982.392 163.107 977.916C171.445 971.688 181.793 968 193 968C204.207 968 214.555 971.688 222.893 977.916C228.885 982.392 238.115 982.392 244.107 977.916C252.445 971.688 262.793 968 274 968C285.207 968 295.555 971.688 303.893 977.916C309.885 982.392 319.115 982.392 325.107 977.916C333.445 971.688 343.793 968 355 968C366.207 968 376.555 971.688 384.893 977.916C390.885 982.392 400.115 982.392 406.107 977.916C414.445 971.688 424.793 968 436 968C447.207 968 457.555 971.688 465.893 977.916C471.885 982.392 481.115 982.392 487.107 977.916C495.445 971.688 505.793 968 517 968C528.207 968 538.555 971.688 546.893 977.916C552.885 982.392 562.115 982.392 568.107 977.916C576.445 971.688 586.793 968 598 968C609.207 968 619.555 971.688 627.893 977.916C633.885 982.392 643.115 982.392 649.107 977.916C657.445 971.688 667.793 968 679 968C690.207 968 700.555 971.688 708.893 977.916C714.885 982.392 724.115 982.392 730.107 977.916C738.445 971.688 748.793 968 760 968C771.207 968 781.555 971.688 789.893 977.916C795.885 982.392 805.115 982.392 811.107 977.916C819.445 971.688 829.793 968 841 968C852.207 968 862.555 971.688 870.893 977.916C876.885 982.392 886.115 982.392 892.107 977.916C900.445 971.688 910.793 968 922 968C933.207 968 943.555 971.688 951.893 977.916C957.885 982.392 967.115 982.392 973.107 977.916C981.445 971.688 991.793 968 1003 968C1014.21 968 1024.55 971.688 1032.89 977.916C1038.88 982.392 1048.12 982.392 1054.11 977.916C1062.45 971.688 1072.79 968 1084 968C1095.21 968 1105.55 971.688 1113.89 977.916C1119.88 982.392 1129.12 982.392 1135.11 977.916C1143.45 971.688 1153.79 968 1165 968C1176.21 968 1186.55 971.688 1194.89 977.916C1200.88 982.392 1210.12 982.392 1216.11 977.916C1224.45 971.688 1234.79 968 1246 968C1257.21 968 1267.55 971.688 1275.89 977.916C1281.88 982.392 1291.12 982.392 1297.11 977.916C1305.45 971.688 1315.79 968 1327 968C1338.21 968 1348.55 971.688 1356.89 977.916C1362.88 982.392 1372.12 982.392 1378.11 977.916C1386.45 971.688 1396.79 968 1408 968C1419.21 968 1429.55 971.688 1437.89 977.916C1443.88 982.392 1453.12 982.392 1459.11 977.916C1467.45 971.688 1477.79 968 1489 968C1500.21 968 1510.55 971.688 1518.89 977.916C1524.88 982.392 1534.12 982.392 1540.11 977.916C1548.45 971.688 1558.79 968 1570 968C1581.21 968 1591.55 971.688 1599.89 977.916C1605.88 982.392 1615.12 982.392 1621.11 977.916C1629.45 971.688 1639.79 968 1651 968Z" fill="#DDF3F8"/>
<path d="M1651 964C1678.61 964 1701 986.386 1701 1014V1307H-262V1014C-262 986.386 -239.613 964 -212 964C-200.793 964 -190.445 967.688 -182.107 973.916C-176.115 978.392 -166.885 978.392 -160.893 973.916C-152.555 967.688 -142.207 964 -131 964C-119.793 964 -109.445 967.688 -101.107 973.916C-95.1152 978.392 -85.8848 978.392 -79.8926 973.916C-71.5547 967.688 -61.207 964 -50 964C-38.793 964 -28.4453 967.688 -20.1074 973.916C-14.1152 978.392 -4.88477 978.392 1.10742 973.916C9.44531 967.688 19.793 964 31 964C42.207 964 52.5547 967.688 60.8926 973.916C66.8848 978.392 76.1152 978.392 82.1074 973.916C90.4453 967.688 100.793 964 112 964C123.207 964 133.555 967.688 141.893 973.916C147.885 978.392 157.115 978.392 163.107 973.916C171.445 967.688 181.793 964 193 964C204.207 964 214.555 967.688 222.893 973.916C228.885 978.392 238.115 978.392 244.107 973.916C252.445 967.688 262.793 964 274 964C285.207 964 295.555 967.688 303.893 973.916C309.885 978.392 319.115 978.392 325.107 973.916C333.445 967.688 343.793 964 355 964C366.207 964 376.555 967.688 384.893 973.916C390.885 978.392 400.115 978.392 406.107 973.916C414.445 967.688 424.793 964 436 964C447.207 964 457.555 967.688 465.893 973.916C471.885 978.392 481.115 978.392 487.107 973.916C495.445 967.688 505.793 964 517 964C528.207 964 538.555 967.688 546.893 973.916C552.885 978.392 562.115 978.392 568.107 973.916C576.445 967.688 586.793 964 598 964C609.207 964 619.555 967.688 627.893 973.916C633.885 978.392 643.115 978.392 649.107 973.916C657.445 967.688 667.793 964 679 964C690.207 964 700.555 967.688 708.893 973.916C714.885 978.392 724.115 978.392 730.107 973.916C738.445 967.688 748.793 964 760 964C771.207 964 781.555 967.688 789.893 973.916C795.885 978.392 805.115 978.392 811.107 973.916C819.445 967.688 829.793 964 841 964C852.207 964 862.555 967.688 870.893 973.916C876.885 978.392 886.115 978.392 892.107 973.916C900.445 967.688 910.793 964 922 964C933.207 964 943.555 967.688 951.893 973.916C957.885 978.392 967.115 978.392 973.107 973.916C981.445 967.688 991.793 964 1003 964C1014.21 964 1024.55 967.688 1032.89 973.916C1038.88 978.392 1048.12 978.392 1054.11 973.916C1062.45 967.688 1072.79 964 1084 964C1095.21 964 1105.55 967.688 1113.89 973.916C1119.88 978.392 1129.12 978.392 1135.11 973.916C1143.45 967.688 1153.79 964 1165 964C1176.21 964 1186.55 967.688 1194.89 973.916C1200.88 978.392 1210.12 978.392 1216.11 973.916C1224.45 967.688 1234.79 964 1246 964C1257.21 964 1267.55 967.688 1275.89 973.916C1281.88 978.392 1291.12 978.392 1297.11 973.916C1305.45 967.688 1315.79 964 1327 964C1338.21 964 1348.55 967.688 1356.89 973.916C1362.88 978.392 1372.12 978.392 1378.11 973.916C1386.45 967.688 1396.79 964 1408 964C1419.21 964 1429.55 967.688 1437.89 973.916C1443.88 978.392 1453.12 978.392 1459.11 973.916C1467.45 967.688 1477.79 964 1489 964C1500.21 964 1510.55 967.688 1518.89 973.916C1524.88 978.392 1534.12 978.392 1540.11 973.916C1548.45 967.688 1558.79 964 1570 964C1581.21 964 1591.55 967.688 1599.89 973.916C1605.88 978.392 1615.12 978.392 1621.11 973.916C1629.45 967.688 1639.79 964 1651 964Z" fill="#DDF3F8"/>
<defs>
<clipPath id="clip0_3593_7093">
<rect width="1440" height="682" fill="white"/>
</clipPath>
<clipPath id="clip1_3593_7093">
<rect width="1440" height="682" fill="white"/>
</clipPath>
<clipPath id="clip2_3593_7093">
<rect width="1440" height="789" fill="white"/>
</clipPath>
</defs>
</svg>
