<svg width="24" height="24" viewBox="0 0 24 24" fill="none" xmlns="http://www.w3.org/2000/svg">
<path opacity="0.4" d="M7.10844 5.95979L16.1284 2.94979C20.1784 1.59979 22.3784 3.80979 21.0384 7.85979L18.0284 16.8798C16.0084 22.9498 12.6884 22.9498 10.6684 16.8798L9.77844 14.1998L7.09844 13.3098C1.03844 11.2998 1.03844 7.98979 7.10844 5.95979Z" fill="white"/>
<path d="M12.1211 11.6301L15.9311 7.81006L12.1211 11.6301Z" fill="white"/>
<path d="M12.1186 12.38C11.9286 12.38 11.7386 12.31 11.5886 12.16C11.2986 11.87 11.2986 11.39 11.5886 11.1L15.3886 7.28C15.6786 6.99 16.1586 6.99 16.4486 7.28C16.7386 7.57 16.7386 8.05 16.4486 8.34L12.6486 12.16C12.4986 12.3 12.3086 12.38 12.1186 12.38Z" fill="white"/>
</svg>
