<svg width="47" height="302" viewBox="0 0 47 302" fill="none" xmlns="http://www.w3.org/2000/svg">
<path d="M35.3512 276.509L47.8669 277.334L108.453 301.191L128.422 171.445L114.937 10.3452L47.0646 -25.4364L38.6947 5.32003L27.2182 11.473C27.8504 12.3783 29.7759 15.0099 32.4194 18.2933C35.7239 22.3977 33.2291 25.2561 32.7571 27.1682C32.3795 28.6979 22.6572 37.5144 17.8432 41.7313C22.014 51.9385 30.1737 61.113 28.2134 68.1091C26.2531 75.1052 -3.76665 80.8996 1.375 85.125C6.51664 89.3504 16.5419 98.2161 16.3577 101.011C16.1735 103.806 2.40791 118.444 2.91264 121.285C3.41737 124.125 21.8913 127.286 21.6064 129.858C21.3216 132.43 0.699287 151.367 0.672413 153.525C0.645538 155.682 18.3497 165.27 18.4958 168.302C18.6419 171.335 1.7917 187.282 2.75426 188.425C3.71683 189.568 26.3005 198.613 27.6231 201.292C28.9458 203.97 9.38234 219.09 9.32713 221.677C9.27191 224.265 32.4848 230.761 30.0892 232.114C28.1726 233.197 22.3798 240.603 19.723 244.17C18.0555 246.724 15.8544 251.775 20.3895 251.556C24.9246 251.336 35.1875 252.747 39.7521 253.48C39.9275 257.234 39.5387 265.816 36.58 270.112C33.6214 274.408 34.528 276.166 35.3512 276.509Z" fill="white"/>
</svg>
