<svg width="43" height="216" viewBox="0 0 43 216" fill="none" xmlns="http://www.w3.org/2000/svg">
<path d="M19.4904 21.995L9.73215 20.8898L-36.7753 0.00383802L-57.1616 100.744L-52.5369 227.236L-0.768648 257.716L6.9079 233.969L16.1098 229.578C15.6486 228.847 14.2395 226.718 12.2926 224.053C9.85903 220.722 11.9153 218.578 12.3547 217.1C12.7063 215.917 20.6342 209.379 24.5541 206.258C21.6673 198.122 15.6228 190.646 17.4131 185.247C19.2034 179.847 42.8949 176.419 39.0289 172.925C35.1629 169.431 27.648 162.129 27.8947 159.95C28.1415 157.771 39.4457 146.828 39.1553 144.588C38.865 142.348 24.5327 139.197 24.85 137.196C25.1673 135.194 41.9921 121.142 42.0924 119.455C42.1927 117.769 28.6986 109.62 28.6958 107.243C28.693 104.866 42.4577 93.0129 41.7469 92.0835C41.0361 91.1542 23.7059 83.2495 22.7699 81.1063C21.8339 78.9631 37.6902 67.8565 37.8285 65.835C37.9668 63.8134 20.0507 57.8796 21.9741 56.9091C23.5128 56.1326 28.3156 50.5536 30.5246 47.8611C31.9226 45.9256 33.8298 42.0559 30.2748 42.0607C26.7199 42.0655 18.745 40.5851 15.202 39.8443C15.2028 36.9017 15.8224 30.2038 18.2942 26.9525C20.7661 23.7013 20.1216 22.2928 19.4904 21.995Z" fill="white"/>
</svg>
