<svg width="21" height="21" viewBox="0 0 21 21" fill="none" xmlns="http://www.w3.org/2000/svg">
<path d="M7.67649 4.84169L6.50152 7.19169C6.34318 7.51669 5.91818 7.82502 5.55985 7.89169L3.43483 8.24169C2.0765 8.46669 1.75983 9.45002 2.73483 10.4334L4.39318 12.0917C4.66818 12.3667 4.8265 12.9084 4.73483 13.3L4.25985 15.35C3.88485 16.9667 4.7515 17.6 6.1765 16.75L8.16818 15.5667C8.52652 15.35 9.12651 15.35 9.48484 15.5667L11.4765 16.75C12.9015 17.5917 13.7682 16.9667 13.3932 15.35L12.9182 13.3C12.8265 12.9167 12.9848 12.375 13.2598 12.0917L14.9182 10.4334C15.8932 9.45835 15.5765 8.47502 14.2182 8.24169L12.0932 7.89169C11.7348 7.83335 11.3098 7.51669 11.1515 7.19169L9.9765 4.84169C9.3515 3.56669 8.31816 3.56669 7.67649 4.84169Z" fill="#FFC700"/>
<path opacity="0.4" d="M13.832 5.29169H18.832C19.1737 5.29169 19.457 5.00835 19.457 4.66669C19.457 4.32502 19.1737 4.04169 18.832 4.04169H13.832C13.4904 4.04169 13.207 4.32502 13.207 4.66669C13.207 5.00835 13.4904 5.29169 13.832 5.29169Z" fill="#FFC700"/>
<path opacity="0.4" d="M16.332 16.9583H18.832C19.1737 16.9583 19.457 16.675 19.457 16.3333C19.457 15.9916 19.1737 15.7083 18.832 15.7083H16.332C15.9904 15.7083 15.707 15.9916 15.707 16.3333C15.707 16.675 15.9904 16.9583 16.332 16.9583Z" fill="#FFC700"/>
<path opacity="0.4" d="M17.9987 11.125H18.832C19.1737 11.125 19.457 10.8417 19.457 10.5C19.457 10.1583 19.1737 9.875 18.832 9.875H17.9987C17.657 9.875 17.3737 10.1583 17.3737 10.5C17.3737 10.8417 17.657 11.125 17.9987 11.125Z" fill="#FFC700"/>
</svg>
