<svg width="1440" height="13" viewBox="0 0 1440 13" fill="none" xmlns="http://www.w3.org/2000/svg">
<path fill-rule="evenodd" clip-rule="evenodd" d="M0 1.54801L0 13L27.7448 13C18.5661 12.0412 10.1252 8.59898 3.10779 3.35691C2.14631 2.6387 1.10146 2.03574 0 1.54801ZM38.2559 13L108.745 13C99.5661 12.0412 91.1251 8.59898 84.1078 3.35691C78.1156 -1.11916 68.8851 -1.11916 62.8929 3.35691C55.8756 8.59898 47.4346 12.0412 38.2559 13ZM119.256 13L189.745 13C180.566 12.0412 172.125 8.59897 165.108 3.35691C159.116 -1.11916 149.885 -1.11916 143.893 3.35691C136.876 8.59898 128.435 12.0412 119.256 13ZM200.256 13L270.745 13C261.566 12.0412 253.125 8.59897 246.108 3.35692C240.116 -1.11916 230.885 -1.11916 224.893 3.35692C217.876 8.59898 209.435 12.0412 200.256 13ZM281.256 13L351.745 13C342.566 12.0412 334.125 8.59897 327.108 3.35692C321.116 -1.11916 311.885 -1.11916 305.893 3.35692C298.876 8.59897 290.435 12.0412 281.256 13ZM362.256 13L432.745 13C423.566 12.0412 415.125 8.59897 408.108 3.35692C402.116 -1.11916 392.885 -1.11916 386.893 3.35692C379.876 8.59897 371.435 12.0412 362.256 13ZM443.256 13L513.745 13C504.566 12.0412 496.125 8.59897 489.108 3.35692C483.116 -1.11916 473.885 -1.11916 467.893 3.35692C460.876 8.59897 452.435 12.0412 443.256 13ZM524.256 13L594.745 13C585.566 12.0412 577.125 8.59897 570.108 3.35692C564.116 -1.11915 554.885 -1.11915 548.893 3.35692C541.876 8.59897 533.435 12.0412 524.256 13ZM605.256 13L675.745 13C666.566 12.0412 658.125 8.59897 651.108 3.35692C645.116 -1.11915 635.885 -1.11915 629.893 3.35692C622.876 8.59897 614.435 12.0412 605.256 13ZM686.256 13L756.745 13C747.566 12.0412 739.125 8.59897 732.108 3.35692C726.116 -1.11915 716.885 -1.11915 710.893 3.35692C703.876 8.59897 695.435 12.0412 686.256 13ZM767.256 13L837.745 13C828.566 12.0412 820.125 8.59904 813.108 3.35741C807.116 -1.11915 797.885 -1.11915 791.893 3.35741C784.876 8.59904 776.435 12.0412 767.256 13ZM848.256 13L918.745 13C909.566 12.0412 901.125 8.59904 894.108 3.35741C888.116 -1.11915 878.885 -1.11915 872.893 3.35741C865.876 8.59904 857.435 12.0412 848.256 13ZM929.256 13L999.745 13C990.566 12.0412 982.125 8.59904 975.108 3.35741C969.116 -1.11915 959.885 -1.11915 953.893 3.35741C946.876 8.59904 938.435 12.0412 929.256 13ZM1010.26 13L1080.74 13C1071.57 12.0412 1063.13 8.59904 1056.11 3.35741C1050.12 -1.11915 1040.89 -1.11915 1034.89 3.35741C1027.88 8.59904 1019.43 12.0412 1010.26 13ZM1091.26 13L1161.74 13C1152.57 12.0412 1144.13 8.59904 1137.11 3.35741C1131.12 -1.11915 1121.89 -1.11915 1115.89 3.35741C1108.88 8.59904 1100.43 12.0412 1091.26 13ZM1172.26 13L1242.74 13C1233.57 12.0412 1225.13 8.59904 1218.11 3.35742C1212.12 -1.11915 1202.89 -1.11915 1196.89 3.35742C1189.88 8.59904 1181.43 12.0412 1172.26 13ZM1253.26 13L1323.74 13C1314.57 12.0411 1306.13 8.59896 1299.11 3.35693C1293.12 -1.11915 1283.89 -1.11915 1277.89 3.35693C1270.88 8.59896 1262.43 12.0411 1253.26 13ZM1334.26 13L1404.74 13C1395.57 12.0411 1387.13 8.59896 1380.11 3.35693C1374.12 -1.11915 1364.89 -1.11915 1358.89 3.35693C1351.88 8.59896 1343.43 12.0411 1334.26 13ZM1415.26 13L1441 13V2.60275C1440.62 2.83817 1440.25 3.08957 1439.89 3.35693C1432.88 8.59896 1424.43 12.0411 1415.26 13Z" fill="white"/>
</svg>
