<svg width="14" height="435" viewBox="0 0 14 435" fill="none" xmlns="http://www.w3.org/2000/svg">
<path fill-rule="evenodd" clip-rule="evenodd" d="M2.61483 0H0V435H1.98647C0.693333 430.557 1.01974e-05 425.859 1.02554e-05 421C1.0389e-05 409.793 3.68751 399.445 9.91554 391.107C14.3921 385.115 14.3921 375.885 9.91554 369.893C3.68751 361.555 1.10877e-05 351.207 1.12213e-05 340C1.1355e-05 328.793 3.68751 318.445 9.91554 310.107C14.3921 304.115 14.3921 294.885 9.91554 288.893C3.68751 280.555 1.20536e-05 270.207 1.21872e-05 259C1.23209e-05 247.793 3.68751 237.445 9.91603 229.107C14.3921 223.115 14.3921 213.885 9.91603 207.893C3.68751 199.555 1.30195e-05 189.207 1.31531e-05 178C1.32868e-05 166.793 3.68751 156.445 9.91603 148.107C14.3921 142.115 14.3921 132.885 9.91603 126.893C3.68751 118.555 1.39854e-05 108.207 1.41191e-05 97C1.42527e-05 85.793 3.68751 75.4453 9.91603 67.1074C14.3921 61.1152 14.3921 51.8848 9.91603 45.8926C3.68751 37.5547 1.49513e-05 27.207 1.5085e-05 16C1.51517e-05 10.4047 0.919178 5.02368 2.61483 0Z" fill="white"/>
</svg>
