<svg width="34" height="45" viewBox="0 0 34 45" fill="none" xmlns="http://www.w3.org/2000/svg">
<path opacity="0.4" d="M17.0015 18.3295V44.3305C16.7257 44.3305 16.4338 44.2819 16.2067 44.1521L16.1418 44.1197C13.0275 42.4165 7.59375 40.6323 4.07396 40.1619L3.60357 40.097C2.04643 39.9024 0.78125 38.4426 0.78125 36.8854V17.2914C0.78125 15.3612 2.35461 13.9014 4.28482 14.0636C7.69107 14.3393 12.8491 16.0587 15.7363 17.8591L16.1418 18.1024C16.3851 18.2484 16.6933 18.3295 17.0015 18.3295Z" fill="white"/>
<path d="M33.2222 17.3072V36.885C33.2222 38.4421 31.957 39.9019 30.3999 40.0966L29.8646 40.1615C26.3286 40.6318 20.8786 42.4323 17.7643 44.1516C17.5534 44.2814 17.2939 44.3301 17.002 44.3301V18.329C17.3101 18.329 17.6183 18.2479 17.8616 18.1019L18.1374 17.9235C21.0246 16.1069 26.1988 14.3713 29.6051 14.0793H29.7024C31.6326 13.9171 33.2222 15.3607 33.2222 17.3072Z" fill="white"/>
<path d="M10.1083 24.7201H6.4587C5.79368 24.7201 5.24219 24.1687 5.24219 23.5036C5.24219 22.8386 5.79368 22.2871 6.4587 22.2871H10.1083C10.7733 22.2871 11.3248 22.8386 11.3248 23.5036C11.3248 24.1687 10.7733 24.7201 10.1083 24.7201Z" fill="white"/>
<path d="M11.3248 29.5864H6.4587C5.79368 29.5864 5.24219 29.0349 5.24219 28.3698C5.24219 27.7048 5.79368 27.1533 6.4587 27.1533H11.3248C11.9898 27.1533 12.5413 27.7048 12.5413 28.3698C12.5413 29.0349 11.9898 29.5864 11.3248 29.5864Z" fill="white"/>
<path fill-rule="evenodd" clip-rule="evenodd" d="M14.204 0C13.7035 0 13.1375 0.0495097 12.5969 0.22245C9.33752 1.22127 8.28962 4.48823 9.2108 7.1809L9.21467 7.19221L9.21892 7.2034C9.72649 8.54206 10.5443 9.75686 11.6081 10.7561L11.6142 10.7619L11.6204 10.7675C13.137 12.1325 14.7879 13.3227 16.5755 14.3555L16.9956 14.5982L17.4185 14.3598C19.2099 13.3503 20.8925 12.1272 22.391 10.7733L22.3956 10.769L22.4003 10.7647C23.4732 9.76355 24.2911 8.53978 24.7912 7.19985L24.7954 7.18865L24.7992 7.17734C25.7029 4.49054 24.6603 1.21966 21.4234 0.235577C20.8935 0.0701272 20.3466 0 19.8121 0C18.6097 -7.44358e-06 17.7196 0.472526 17.0012 0.954142C16.2884 0.47619 15.3924 0 14.204 0Z" fill="#CCFF02"/>
</svg>
