<svg width="35" height="35" viewBox="0 0 35 35" fill="none" xmlns="http://www.w3.org/2000/svg">
<rect width="35" height="35" rx="8" fill="#CCFF02"/>
<path d="M22.3413 11.7417C21.6633 10.9829 21.2896 10.0086 21.2897 9H18.2242V21.0556C18.2011 21.7081 17.9202 22.3263 17.4408 22.7798C16.9614 23.2333 16.321 23.4865 15.6548 23.4861C14.246 23.4861 13.0754 22.3583 13.0754 20.9583C13.0754 19.2861 14.7222 18.0319 16.4187 18.5472V15.475C12.996 15.0278 10 17.6333 10 20.9583C10 24.1958 12.7381 26.5 15.6448 26.5C18.7599 26.5 21.2897 24.0208 21.2897 20.9583V14.8431C22.5327 15.7179 24.0252 16.1873 25.5556 16.1847V13.1806C25.5556 13.1806 23.6905 13.2681 22.3413 11.7417Z" fill="#0097B2"/>
</svg>
