<svg width="35" height="35" viewBox="0 0 35 35" fill="none" xmlns="http://www.w3.org/2000/svg">
<rect width="35" height="35" rx="8" fill="black"/>
<path d="M22.0639 11.4917C21.3859 10.7329 21.0122 9.75858 21.0123 8.75H17.9469V20.8056C17.9237 21.4581 17.6428 22.0763 17.1634 22.5298C16.6841 22.9833 16.0437 23.2365 15.3774 23.2361C13.9687 23.2361 12.7981 22.1083 12.7981 20.7083C12.7981 19.0361 14.4449 17.7819 16.1413 18.2972V15.225C12.7187 14.7778 9.72266 17.3833 9.72266 20.7083C9.72266 23.9458 12.4608 26.25 15.3675 26.25C18.4826 26.25 21.0123 23.7708 21.0123 20.7083V14.5931C22.2554 15.4679 23.7478 15.9373 25.2782 15.9347V12.9306C25.2782 12.9306 23.4131 13.0181 22.0639 11.4917Z" fill="white"/>
</svg>
