<svg width="100" height="100" viewBox="0 0 100 100" fill="none" xmlns="http://www.w3.org/2000/svg">
<path opacity="0.4" d="M76.4585 82C74.1668 87.875 68.5835 91.6667 62.2918 91.6667H37.7085C31.3752 91.6667 25.8335 87.875 23.5418 82C21.2502 76.0833 22.8335 69.5417 27.5002 65.2917L44.3752 50H55.6668L72.5002 65.2917C77.1668 69.5417 78.7085 76.0833 76.4585 82Z" fill="#0097B2"/>
<path d="M57.584 75.5833H42.4173C40.834 75.5833 39.584 74.2917 39.584 72.75C39.584 71.1667 40.8757 69.9167 42.4173 69.9167H57.584C59.1673 69.9167 60.4173 71.2083 60.4173 72.75C60.4173 74.2917 59.1257 75.5833 57.584 75.5833Z" fill="#0097B2"/>
<path d="M76.4584 18C74.1668 12.125 68.5834 8.33331 62.2918 8.33331H37.7084C31.4168 8.33331 25.8334 12.125 23.5418 18C21.2918 23.9166 22.8334 30.4583 27.5418 34.7083L44.3751 50H55.6668L72.5001 34.7083C77.1668 30.4583 78.7084 23.9166 76.4584 18ZM57.5834 30.125H42.4168C40.8334 30.125 39.5834 28.8333 39.5834 27.2916C39.5834 25.75 40.8751 24.4583 42.4168 24.4583H57.5834C59.1668 24.4583 60.4168 25.75 60.4168 27.2916C60.4168 28.8333 59.1251 30.125 57.5834 30.125Z" fill="#0097B2"/>
</svg>
