<svg width="25" height="25" viewBox="0 0 25 25" fill="none" xmlns="http://www.w3.org/2000/svg">
<path opacity="0.4" d="M11.2489 2.95001C11.9389 2.36001 13.0689 2.36001 13.7689 2.95001L15.3489 4.31001C15.6489 4.57001 16.2089 4.78001 16.6089 4.78001H18.3089C19.3689 4.78001 20.2389 5.65001 20.2389 6.71001V8.41001C20.2389 8.80001 20.4489 9.37001 20.7089 9.67001L22.0689 11.25C22.6589 11.94 22.6589 13.07 22.0689 13.77L20.7089 15.35C20.4489 15.65 20.2389 16.21 20.2389 16.61V18.31C20.2389 19.37 19.3689 20.24 18.3089 20.24H16.6089C16.2189 20.24 15.6489 20.45 15.3489 20.71L13.7689 22.07C13.0789 22.66 11.9489 22.66 11.2489 22.07L9.66891 20.71C9.36891 20.45 8.80891 20.24 8.40891 20.24H6.67891C5.61891 20.24 4.74891 19.37 4.74891 18.31V16.6C4.74891 16.21 4.53891 15.65 4.28891 15.35L2.93891 13.76C2.35891 13.07 2.35891 11.95 2.93891 11.26L4.28891 9.67001C4.53891 9.37001 4.74891 8.81001 4.74891 8.42001V6.70001C4.74891 5.64001 5.61891 4.77001 6.67891 4.77001H8.40891C8.79891 4.77001 9.36891 4.56001 9.66891 4.30001L11.2489 2.95001Z" fill="#0097B2"/>
<path d="M11.2886 15.67C11.0886 15.67 10.8986 15.59 10.7586 15.45L8.33859 13.03C8.04859 12.74 8.04859 12.26 8.33859 11.97C8.62859 11.68 9.10859 11.68 9.39859 11.97L11.2886 13.86L15.5886 9.56003C15.8786 9.27003 16.3586 9.27003 16.6486 9.56003C16.9386 9.85003 16.9386 10.33 16.6486 10.62L11.8186 15.45C11.6786 15.59 11.4886 15.67 11.2886 15.67Z" fill="#0097B2"/>
</svg>
