<svg width="102" height="102" viewBox="0 0 102 102" fill="none" xmlns="http://www.w3.org/2000/svg">
<path opacity="0.4" d="M55.2083 14.1771H29.9583C15.5658 14.1771 9.96875 19.7742 9.96875 34.1667V67.8334C9.96875 77.5125 15.2292 87.823 29.9583 87.823H55.2083C69.6008 87.823 75.1979 82.2259 75.1979 67.8334V34.1667C75.1979 19.7742 69.6008 14.1771 55.2083 14.1771Z" fill="#0097B2"/>
<path d="M48.896 48.3908C53.2655 48.3908 56.8077 44.8487 56.8077 40.4792C56.8077 36.1097 53.2655 32.5675 48.896 32.5675C44.5265 32.5675 40.9844 36.1097 40.9844 40.4792C40.9844 44.8487 44.5265 48.3908 48.896 48.3908Z" fill="#CCFF02"/>
<path d="M91.61 26.4654C89.8845 25.5816 86.2654 24.5716 81.3416 28.0225L75.1133 32.3991C75.1554 32.9883 75.1974 33.5354 75.1974 34.1666V67.8333C75.1974 68.4645 75.1133 69.0116 75.1133 69.6008L81.3416 73.9775C83.9508 75.8291 86.2233 76.4183 88.0329 76.4183C89.5899 76.4183 90.8104 75.9975 91.61 75.5766C93.3354 74.6929 96.2391 72.2941 96.2391 66.2762V35.7658C96.2391 29.7479 93.3354 27.3491 91.61 26.4654Z" fill="#0097B2"/>
</svg>
