<svg width="1440" height="343" viewBox="0 0 1440 343" fill="none" xmlns="http://www.w3.org/2000/svg">
<path d="M1651 0C1678.61 0 1701 22.3857 1701 50V343H-262V50C-262 22.3857 -239.613 0 -212 0C-200.793 0 -190.445 3.6875 -182.107 9.91602C-176.115 14.3921 -166.885 14.3921 -160.893 9.91602C-152.555 3.6875 -142.207 0 -131 0C-119.793 0 -109.445 3.6875 -101.107 9.91602C-95.1152 14.3921 -85.8848 14.3921 -79.8926 9.91602C-71.5547 3.6875 -61.207 0 -50 0C-38.793 0 -28.4453 3.6875 -20.1074 9.91602C-14.1152 14.3921 -4.88477 14.3921 1.10742 9.91602C9.44531 3.6875 19.793 0 31 0C42.207 0 52.5547 3.6875 60.8926 9.91602C66.8848 14.3921 76.1152 14.3921 82.1074 9.91602C90.4453 3.6875 100.793 0 112 0C123.207 0 133.555 3.6875 141.893 9.91602C147.885 14.3921 157.115 14.3921 163.107 9.91602C171.445 3.6875 181.793 0 193 0C204.207 0 214.555 3.6875 222.893 9.91602C228.885 14.3921 238.115 14.3921 244.107 9.91602C252.445 3.6875 262.793 0 274 0C285.207 0 295.555 3.6875 303.893 9.91553C309.885 14.3921 319.115 14.3921 325.107 9.91553C333.445 3.6875 343.793 0 355 0C366.207 0 376.555 3.6875 384.893 9.91553C390.885 14.3921 400.115 14.3921 406.107 9.91553C414.445 3.6875 424.793 0 436 0C447.207 0 457.555 3.6875 465.893 9.91553C471.885 14.3921 481.115 14.3921 487.107 9.91553C495.445 3.6875 505.793 0 517 0C528.207 0 538.555 3.6875 546.893 9.91553C552.885 14.3921 562.115 14.3921 568.107 9.91553C576.445 3.6875 586.793 0 598 0C609.207 0 619.555 3.6875 627.893 9.91553C633.885 14.3921 643.115 14.3921 649.107 9.91553C657.445 3.6875 667.793 0 679 0C690.207 0 700.555 3.6875 708.893 9.91553C714.885 14.3921 724.115 14.3921 730.107 9.91553C738.445 3.6875 748.793 0 760 0C771.207 0 781.555 3.6875 789.893 9.91602C795.885 14.3921 805.115 14.3921 811.107 9.91602C819.445 3.6875 829.793 0 841 0C852.207 0 862.555 3.6875 870.893 9.91602C876.885 14.3921 886.115 14.3921 892.107 9.91602C900.445 3.6875 910.793 0 922 0C933.207 0 943.555 3.6875 951.893 9.91602C957.885 14.3921 967.115 14.3921 973.107 9.91602C981.445 3.6875 991.793 0 1003 0C1014.21 0 1024.55 3.6875 1032.89 9.91602C1038.88 14.3921 1048.12 14.3921 1054.11 9.91602C1062.45 3.6875 1072.79 0 1084 0C1095.21 0 1105.55 3.6875 1113.89 9.91602C1119.88 14.3921 1129.12 14.3921 1135.11 9.91602C1143.45 3.6875 1153.79 0 1165 0C1176.21 0 1186.55 3.6875 1194.89 9.91602C1200.88 14.3921 1210.12 14.3921 1216.11 9.91602C1224.45 3.6875 1234.79 0 1246 0C1257.21 0 1267.55 3.6875 1275.89 9.91602C1281.88 14.3921 1291.12 14.3921 1297.11 9.91602C1305.45 3.6875 1315.79 0 1327 0C1338.21 0 1348.55 3.6875 1356.89 9.91602C1362.88 14.3921 1372.12 14.3921 1378.11 9.91602C1386.45 3.6875 1396.79 0 1408 0C1419.21 0 1429.55 3.6875 1437.89 9.91602C1443.88 14.3921 1453.12 14.3921 1459.11 9.91602C1467.45 3.6875 1477.79 0 1489 0C1500.21 0 1510.55 3.6875 1518.89 9.91602C1524.88 14.3921 1534.12 14.3921 1540.11 9.91602C1548.45 3.6875 1558.79 0 1570 0C1581.21 0 1591.55 3.6875 1599.89 9.91602C1605.88 14.3921 1615.12 14.3921 1621.11 9.91602C1629.45 3.6875 1639.79 0 1651 0Z" fill="white"/>
</svg>
