<svg width="36" height="35" viewBox="0 0 36 35" fill="none" xmlns="http://www.w3.org/2000/svg">
<rect x="0.0820312" width="35" height="35" rx="8" fill="#25D366"/>
<path d="M25.082 10.9101C24.1651 9.98416 23.0731 9.25002 21.8695 8.75042C20.666 8.25081 19.3751 7.99574 18.072 8.00005C12.612 8.00005 8.16203 12.4501 8.16203 17.9101C8.16203 19.6601 8.62203 21.3601 9.48203 22.8601L8.08203 28.0001L13.332 26.6201C14.782 27.4101 16.412 27.8301 18.072 27.8301C23.532 27.8301 27.982 23.3801 27.982 17.9201C27.982 15.2701 26.952 12.7801 25.082 10.9101ZM18.072 26.1501C16.592 26.1501 15.142 25.7501 13.872 25.0001L13.572 24.8201L10.452 25.6401L11.282 22.6001L11.082 22.2901C10.2596 20.9771 9.82296 19.4593 9.82203 17.9101C9.82203 13.3701 13.522 9.67005 18.062 9.67005C20.262 9.67005 22.332 10.5301 23.882 12.0901C24.6496 12.8539 25.258 13.7626 25.6717 14.7634C26.0854 15.7642 26.2962 16.8371 26.292 17.9201C26.312 22.4601 22.612 26.1501 18.072 26.1501ZM22.592 19.9901C22.342 19.8701 21.122 19.2701 20.902 19.1801C20.672 19.1001 20.512 19.0601 20.342 19.3001C20.172 19.5501 19.702 20.1101 19.562 20.2701C19.422 20.4401 19.272 20.4601 19.022 20.3301C18.772 20.2101 17.972 19.9401 17.032 19.1001C16.292 18.4401 15.802 17.6301 15.652 17.3801C15.512 17.1301 15.632 17.0001 15.762 16.8701C15.872 16.7601 16.012 16.5801 16.132 16.4401C16.252 16.3001 16.302 16.1901 16.382 16.0301C16.462 15.8601 16.422 15.7201 16.362 15.6001C16.302 15.4801 15.802 14.2601 15.602 13.7601C15.402 13.2801 15.192 13.3401 15.042 13.3301H14.562C14.392 13.3301 14.132 13.3901 13.902 13.6401C13.682 13.8901 13.042 14.4901 13.042 15.7101C13.042 16.9301 13.932 18.1101 14.052 18.2701C14.172 18.4401 15.802 20.9401 18.282 22.0101C18.872 22.2701 19.332 22.4201 19.692 22.5301C20.282 22.7201 20.822 22.6901 21.252 22.6301C21.732 22.5601 22.722 22.0301 22.922 21.4501C23.132 20.8701 23.132 20.3801 23.062 20.2701C22.992 20.1601 22.842 20.1101 22.592 19.9901Z" fill="white"/>
</svg>
