<svg width="36" height="35" viewBox="0 0 36 35" fill="none" xmlns="http://www.w3.org/2000/svg">
<rect x="0.0820312" width="35" height="35" rx="8" fill="#CCFF02"/>
<path d="M17.582 8.58813C22.5041 8.58813 26.494 12.5781 26.494 17.5002C26.494 22.4223 22.5041 26.4122 17.582 26.4122C16.007 26.4149 14.4597 25.9981 13.0992 25.2046L8.6735 26.4122L9.87841 21.9847C9.08431 20.6238 8.66718 19.0758 8.66994 17.5002C8.66994 12.5781 12.6599 8.58813 17.582 8.58813ZM14.5448 13.3115L14.3665 13.3186C14.2513 13.3266 14.1387 13.3569 14.035 13.4078C13.9384 13.4626 13.8501 13.531 13.773 13.611C13.666 13.7117 13.6054 13.799 13.5404 13.8837C13.2107 14.3123 13.0332 14.8384 13.0359 15.3791C13.0377 15.8158 13.1518 16.2409 13.33 16.6384C13.6945 17.4422 14.2943 18.2933 15.0857 19.0821C15.2764 19.2719 15.4636 19.4626 15.665 19.64C16.6484 20.5057 17.8202 21.13 19.0872 21.4634L19.5934 21.5409C19.7583 21.5498 19.9232 21.5373 20.0889 21.5293C20.3484 21.5156 20.6018 21.4454 20.8313 21.3234C20.9479 21.2631 21.0618 21.1977 21.1726 21.1274C21.1726 21.1274 21.2104 21.1018 21.284 21.0472C21.4043 20.958 21.4783 20.8948 21.5781 20.7905C21.653 20.7133 21.7154 20.6235 21.7653 20.5214C21.8348 20.3761 21.9043 20.0989 21.9328 19.8681C21.9542 19.6916 21.948 19.5954 21.9453 19.5357C21.9417 19.4403 21.8624 19.3414 21.776 19.2995L21.2573 19.0669C21.2573 19.0669 20.4819 18.7291 20.0078 18.5135C19.9582 18.4919 19.905 18.4795 19.851 18.4769C19.79 18.4706 19.7284 18.4774 19.6702 18.4969C19.6121 18.5164 19.5589 18.5482 19.5141 18.5901C19.5096 18.5883 19.4499 18.6391 18.8056 19.4198C18.7686 19.4695 18.7177 19.5071 18.6593 19.5277C18.6009 19.5483 18.5376 19.5511 18.4776 19.5357C18.4195 19.5202 18.3627 19.5005 18.3074 19.4769C18.1969 19.4305 18.1586 19.4127 18.0828 19.3806C17.5712 19.1577 17.0976 18.8561 16.6792 18.4867C16.5669 18.3887 16.4626 18.2818 16.3557 18.1784C16.0051 17.8426 15.6995 17.4627 15.4466 17.0483L15.3941 16.9637C15.3569 16.9065 15.3264 16.8451 15.3032 16.781C15.2693 16.65 15.3575 16.5448 15.3575 16.5448C15.3575 16.5448 15.5741 16.3077 15.6748 16.1794C15.7728 16.0546 15.8557 15.9334 15.9092 15.847C16.0143 15.6777 16.0473 15.5039 15.9921 15.3693C15.7425 14.7597 15.4847 14.1534 15.2185 13.5504C15.1659 13.4309 15.01 13.3454 14.8683 13.3284C14.8201 13.3225 14.772 13.3178 14.7239 13.3142C14.6042 13.3073 14.4842 13.3085 14.3647 13.3178L14.5448 13.3115Z" fill="#0097B2"/>
</svg>
